<svg width="345" height="146" viewBox="0 0 345 146" fill="none" xmlns="http://www.w3.org/2000/svg">
<rect width="345" height="146" rx="16.7317" fill="#3A304E"/>
<path d="M32.1528 44.2689C32.5472 44.2689 32.9237 44.233 33.3001 44.1793L35.0211 47.2627H37.7818L35.6306 43.3188C37.5309 42.1715 38.7678 40.074 38.7678 37.5463C38.7678 33.6921 35.8816 30.8596 32.1528 30.8596C28.442 30.8596 25.5737 33.6921 25.5737 37.5463C25.5737 41.4006 28.442 44.2689 32.1528 44.2689ZM32.1528 41.8309C29.8044 41.8309 28.3702 39.9127 28.3702 37.5463C28.3702 35.18 29.8044 33.2977 32.1528 33.2977C34.5191 33.2977 35.9533 35.18 35.9533 37.5463C35.9533 39.9127 34.5191 41.8309 32.1528 41.8309ZM46.2581 39.9665C46.2581 41.2572 45.3977 41.9743 44.5013 41.9743C43.4974 41.9743 42.8341 41.3827 42.8341 40.0382V34.4271H40.3423V40.5222C40.3423 43.014 41.7406 44.1793 43.6587 44.1793C44.8778 44.1793 45.9355 43.5877 46.4553 42.7451V44H48.732V34.4271H46.2581V39.9665ZM56.6717 44H58.6974V37.9766C58.6974 35.6282 57.2274 34.2478 54.7176 34.2478C52.4051 34.2478 50.8096 35.682 50.6662 37.887H52.907C52.9967 36.8113 53.642 36.1839 54.7176 36.1839C55.7574 36.1839 56.3669 36.8113 56.3669 37.887V38.4606C55.7753 38.3889 55.3092 38.353 54.7714 38.353C51.9748 38.353 50.469 39.357 50.469 41.2213C50.469 43.014 51.7956 44.1793 53.7854 44.1793C55.0941 44.1793 56.0442 43.7132 56.6717 42.8168V44ZM52.8174 41.1496C52.8174 40.2891 53.5165 39.841 54.9328 39.841C55.363 39.841 55.7753 39.8768 56.3669 39.9665V40.6477C56.3669 41.7591 55.5961 42.4583 54.3233 42.4583C53.3911 42.4583 52.8174 41.9563 52.8174 41.1496ZM63.3545 44V31.1285H60.8447V44H63.3545ZM68.4752 32.2041C68.4752 31.3257 67.794 30.6983 66.808 30.6983C65.84 30.6983 65.1588 31.3257 65.1588 32.2041C65.1588 33.0467 65.84 33.6741 66.808 33.6741C67.794 33.6741 68.4752 33.0467 68.4752 32.2041ZM68.0808 44V34.4271H65.589V44H68.0808ZM80.3373 32.2041C80.3373 31.3257 79.6561 30.6983 78.6701 30.6983C77.6842 30.6983 77.0029 31.3257 77.0029 32.2041C77.0029 33.0467 77.6842 33.6741 78.6701 33.6741C79.6561 33.6741 80.3373 33.0467 80.3373 32.2041ZM73.6865 44V36.5604H76.1783V34.4271H73.6865V33.961C73.6865 33.2977 74.1346 33.0288 74.8159 33.0288C75.1385 33.0288 75.4971 33.0826 75.766 33.1901V31.2182C75.3537 31.0389 74.8338 30.9313 74.2243 30.9313C72.2344 30.9313 71.2126 32.007 71.2126 33.9072V34.4271H69.2765V36.5604H71.2126V44H73.6865ZM79.925 44V34.4271H77.4511V44H79.925ZM86.3268 44.1613C88.6573 44.1613 90.3245 42.9244 90.8623 40.7552H88.3884C88.1016 41.7054 87.3666 42.2432 86.2731 42.2432C85.0003 42.2432 84.2473 41.3827 84.086 39.823H90.8803C91.3284 36.7038 89.3206 34.2478 86.291 34.2478C83.5303 34.2478 81.5404 36.3273 81.5404 39.1777C81.5404 42.1715 83.4586 44.1613 86.3268 44.1613ZM86.2372 36.0763C87.4204 36.0763 88.1733 36.9189 88.245 38.2455H84.1218C84.337 36.8293 85.072 36.0763 86.2372 36.0763ZM91.7468 39.2135C91.7468 42.0101 93.414 44.1793 95.9954 44.1793C97.2324 44.1793 98.2721 43.6235 99.0251 42.6196V44H101.302V31.1285H98.8279V35.664C98.1108 34.7498 97.1427 34.2478 95.9954 34.2478C93.414 34.2478 91.7468 36.3811 91.7468 39.2135ZM94.3103 39.2135C94.3103 37.385 95.3321 36.4528 96.5512 36.4528C97.7702 36.4528 98.8099 37.3671 98.8099 39.1777C98.8099 40.9883 97.7881 41.9563 96.5512 41.9563C95.3321 41.9563 94.3103 41.0062 94.3103 39.2135ZM110.661 44V36.5604H113.152V34.4271H110.661V33.961C110.661 33.2977 111.109 33.0288 111.79 33.0288C112.113 33.0288 112.471 33.0826 112.74 33.1901V31.2182C112.328 31.0389 111.808 30.9313 111.198 30.9313C109.208 30.9313 108.187 32.007 108.187 33.9072V34.4271H106.251V36.5604H108.187V44H110.661ZM118.401 44.1793C121.179 44.1793 123.259 41.9922 123.259 39.2135C123.259 36.417 121.179 34.2478 118.401 34.2478C115.622 34.2478 113.543 36.417 113.543 39.2135C113.543 41.9922 115.622 44.1793 118.401 44.1793ZM118.401 41.9743C117.164 41.9743 116.106 40.9883 116.106 39.2135C116.106 37.4388 117.164 36.4707 118.401 36.4707C119.638 36.4707 120.695 37.4388 120.695 39.2135C120.695 40.9883 119.638 41.9743 118.401 41.9743ZM127.341 39.357C127.341 37.2416 128.757 36.7396 130.872 36.901V34.3195C129.331 34.3195 127.843 35.0545 127.144 36.2735V34.4271H124.849V44H127.341V39.357ZM36.0967 68H38.8574L42.1739 55.1285H39.5028L37.4054 63.8948L35.1107 55.1285H32.3321L29.9657 63.8589L27.8862 55.1285H25.233L28.5316 68H31.2923L33.6945 59.0007L36.0967 68ZM46.9018 68.1613C49.2323 68.1613 50.8995 66.9244 51.4373 64.7552H48.9634C48.6766 65.7054 47.9416 66.2432 46.848 66.2432C45.5752 66.2432 44.8223 65.3827 44.661 63.823H51.4552C51.9034 60.7038 49.8956 58.2478 46.866 58.2478C44.1052 58.2478 42.1154 60.3273 42.1154 63.1777C42.1154 66.1715 44.0335 68.1613 46.9018 68.1613ZM46.8122 60.0763C47.9954 60.0763 48.7483 60.9189 48.82 62.2455H44.6968C44.9119 60.8293 45.6469 60.0763 46.8122 60.0763ZM62.6793 63.2135C62.6793 60.3811 61.0121 58.2478 58.4306 58.2478C57.2833 58.2478 56.3152 58.7318 55.6161 59.664V55.1285H53.1243V68H55.4189V66.6196C56.1539 67.6235 57.1936 68.1793 58.4306 68.1793C61.0121 68.1793 62.6793 66.0101 62.6793 63.2135ZM60.1157 63.2135C60.1157 65.0062 59.0939 65.9563 57.8749 65.9563C56.6379 65.9563 55.634 64.9883 55.634 63.1777C55.634 61.3671 56.6738 60.4528 57.8749 60.4528C59.0939 60.4528 60.1157 61.385 60.1157 63.2135ZM68.2378 68.1613C71.0165 68.1613 72.8809 66.6376 72.8809 64.3967C72.8809 63.088 72.0204 62.12 70.5145 61.636C71.6798 61.0265 72.3252 60.148 72.3252 59.0366C72.3252 57.0826 70.7655 55.7022 68.2199 55.7022C65.8356 55.7022 64.0071 57.2798 63.9892 59.3772H66.4093C66.4272 58.3195 67.0726 57.6741 68.0944 57.6741C69.1342 57.6741 69.7616 58.2657 69.7616 59.2159C69.7616 60.2018 69.0266 60.8113 67.8076 60.8113H66.6423V62.7833H67.951C69.4389 62.7833 70.3173 63.4107 70.3173 64.4684C70.3173 65.544 69.5644 66.1894 68.2737 66.1894C67.0367 66.1894 66.248 65.5261 66.1762 64.4326H63.7561C63.7741 66.6196 65.6205 68.1613 68.2378 68.1613ZM84.4643 64.2174C84.4643 62.8012 83.6755 61.7794 82.2413 61.2774C83.3887 60.6859 84.052 59.7357 84.052 58.5526C84.052 56.3476 82.3848 55.1285 79.6778 55.1285H74.8376V68H79.875C82.7074 68 84.4643 66.6017 84.4643 64.2174ZM79.4627 57.2798C80.7893 57.2798 81.4705 57.8534 81.4705 58.7677C81.4705 59.6999 80.7893 60.2735 79.4627 60.2735H77.3115V57.2798H79.4627ZM79.6599 62.4427C81.1299 62.4427 81.9007 63.088 81.9007 64.1099C81.9007 65.2034 81.1299 65.8488 79.6599 65.8488H77.3115V62.4427H79.6599ZM88.7212 62.7833C88.7212 61.2416 89.5638 60.4528 90.5497 60.4528C91.6791 60.4528 92.2349 61.2416 92.2349 62.6578V68H94.7088V61.8152C94.7088 59.5027 93.3822 58.2478 91.464 58.2478C90.2091 58.2478 89.3845 58.8035 88.7212 59.682V55.1285H86.2294V68H88.7212V62.7833ZM102.557 68H104.582V61.9766C104.582 59.6282 103.112 58.2478 100.603 58.2478C98.2901 58.2478 96.6946 59.682 96.5512 61.887H98.792C98.8816 60.8113 99.527 60.1839 100.603 60.1839C101.642 60.1839 102.252 60.8113 102.252 61.887V62.4606C101.66 62.3889 101.194 62.353 100.656 62.353C97.8598 62.353 96.354 63.357 96.354 65.2213C96.354 67.014 97.6806 68.1793 99.6704 68.1793C100.979 68.1793 101.929 67.7132 102.557 66.8168V68ZM98.7024 65.1496C98.7024 64.2891 99.4015 63.841 100.818 63.841C101.248 63.841 101.66 63.8768 102.252 63.9665V64.6477C102.252 65.7591 101.481 66.4583 100.208 66.4583C99.276 66.4583 98.7024 65.9563 98.7024 65.1496ZM109.222 63.357C109.222 61.2416 110.638 60.7396 112.753 60.901V58.3195C111.211 58.3195 109.723 59.0545 109.024 60.2735V58.4271H106.73V68H109.222V63.357ZM119.748 68H121.774V61.9766C121.774 59.6282 120.304 58.2478 117.794 58.2478C115.482 58.2478 113.886 59.682 113.743 61.887H115.984C116.073 60.8113 116.719 60.1839 117.794 60.1839C118.834 60.1839 119.443 60.8113 119.443 61.887V62.4606C118.852 62.3889 118.386 62.353 117.848 62.353C115.051 62.353 113.546 63.357 113.546 65.2213C113.546 67.014 114.872 68.1793 116.862 68.1793C118.171 68.1793 119.121 67.7132 119.748 66.8168V68ZM115.894 65.1496C115.894 64.2891 116.593 63.841 118.009 63.841C118.44 63.841 118.852 63.8768 119.443 63.9665V64.6477C119.443 65.7591 118.673 66.4583 117.4 66.4583C116.468 66.4583 115.894 65.9563 115.894 65.1496ZM129.733 65.5799C129.374 65.7771 128.944 65.8846 128.478 65.8846C127.582 65.8846 127.08 65.4365 127.08 64.325V60.5604H129.823V58.4271H127.08V55.5946H124.606V58.4271H122.67V60.5604H124.606V64.8987C124.606 67.0499 125.843 68.1793 127.815 68.1793C128.55 68.1793 129.123 68.0538 129.733 67.749V65.5799ZM30.145 92.1793C32.7085 92.1793 34.5012 90.5479 34.788 87.9127H32.1707C32.0273 89.2213 31.2923 89.9743 30.145 89.9743C28.8363 89.9743 28.0296 88.9345 28.0296 87.2135C28.0296 85.5105 28.8543 84.4528 30.145 84.4528C31.2744 84.4528 32.0452 85.2416 32.1707 86.5144H34.788C34.4833 83.9329 32.6368 82.2478 30.145 82.2478C27.456 82.2478 25.484 84.3452 25.484 87.2135C25.484 90.1356 27.3843 92.1793 30.145 92.1793ZM40.5836 92.1793C43.3623 92.1793 45.4418 89.9922 45.4418 87.2135C45.4418 84.417 43.3623 82.2478 40.5836 82.2478C37.8049 82.2478 35.7254 84.417 35.7254 87.2135C35.7254 89.9922 37.8049 92.1793 40.5836 92.1793ZM40.5836 89.9743C39.3466 89.9743 38.289 88.9883 38.289 87.2135C38.289 85.4388 39.3466 84.4707 40.5836 84.4707C41.8205 84.4707 42.8782 85.4388 42.8782 87.2135C42.8782 88.9883 41.8205 89.9743 40.5836 89.9743ZM49.5238 86.7833C49.5238 85.2416 50.3663 84.4528 51.3523 84.4528C52.4817 84.4528 53.0374 85.2416 53.0374 86.6578V92H55.5113V85.8152C55.5113 83.5027 54.1847 82.2478 52.2666 82.2478C51.0117 82.2478 50.1871 82.8035 49.5238 83.682V79.1285H47.0319V92H49.5238V86.7833ZM61.8892 92.1793C64.6679 92.1793 66.7474 89.9922 66.7474 87.2135C66.7474 84.417 64.6679 82.2478 61.8892 82.2478C59.1106 82.2478 57.031 84.417 57.031 87.2135C57.031 89.9922 59.1106 92.1793 61.8892 92.1793ZM61.8892 89.9743C60.6523 89.9743 59.5946 88.9883 59.5946 87.2135C59.5946 85.4388 60.6523 84.4707 61.8892 84.4707C63.1262 84.4707 64.1839 85.4388 64.1839 87.2135C64.1839 88.9883 63.1262 89.9743 61.8892 89.9743ZM70.8294 87.357C70.8294 85.2416 72.2456 84.7396 74.361 84.901V82.3195C72.8193 82.3195 71.3313 83.0545 70.6322 84.2735V82.4271H68.3376V92H70.8294V87.357ZM82.2198 89.5799C81.8612 89.7771 81.431 89.8846 80.9649 89.8846C80.0686 89.8846 79.5666 89.4365 79.5666 88.325V84.5604H82.3094V82.4271H79.5666V79.5946H77.0927V82.4271H75.1566V84.5604H77.0927V88.8987C77.0927 91.0499 78.3297 92.1793 80.3016 92.1793C81.0366 92.1793 81.6103 92.0538 82.2198 91.749V89.5799ZM88.339 88.1816V85.9587H82.8713V88.1816H88.339ZM96.179 86.7833C96.179 85.2416 97.0216 84.4528 98.0076 84.4528C99.137 84.4528 99.6927 85.2416 99.6927 86.6578V92H102.167V85.8152C102.167 83.5027 100.84 82.2478 98.9218 82.2478C97.667 82.2478 96.8423 82.8035 96.179 83.682V79.1285H93.6872V92H96.179V86.7833ZM110.014 92H112.04V85.9766C112.04 83.6282 110.57 82.2478 108.06 82.2478C105.748 82.2478 104.152 83.682 104.009 85.887H106.25C106.339 84.8113 106.985 84.1839 108.06 84.1839C109.1 84.1839 109.71 84.8113 109.71 85.887V86.4606C109.118 86.3889 108.652 86.353 108.114 86.353C105.318 86.353 103.812 87.357 103.812 89.2213C103.812 91.014 105.138 92.1793 107.128 92.1793C108.437 92.1793 109.387 91.7132 110.014 90.8168V92ZM106.16 89.1496C106.16 88.2891 106.859 87.841 108.276 87.841C108.706 87.841 109.118 87.8768 109.71 87.9665V88.6477C109.71 89.7591 108.939 90.4583 107.666 90.4583C106.734 90.4583 106.16 89.9563 106.16 89.1496ZM116.679 86.7833C116.679 85.2416 117.522 84.4528 118.508 84.4528C119.637 84.4528 120.193 85.2416 120.193 86.6578V92H122.667V85.8152C122.667 83.5027 121.34 82.2478 119.422 82.2478C118.167 82.2478 117.181 82.8394 116.482 83.7895V82.4271H114.188V92H116.679V86.7833ZM124.187 87.2135C124.187 90.0101 125.854 92.1793 128.435 92.1793C129.672 92.1793 130.712 91.6235 131.465 90.6196V92H133.742V79.1285H131.268V83.664C130.551 82.7498 129.583 82.2478 128.435 82.2478C125.854 82.2478 124.187 84.3811 124.187 87.2135ZM126.75 87.2135C126.75 85.385 127.772 84.4528 128.991 84.4528C130.21 84.4528 131.25 85.3671 131.25 87.1777C131.25 88.9883 130.228 89.9563 128.991 89.9563C127.772 89.9563 126.75 89.0062 126.75 87.2135ZM144.051 88.9345C144.051 87.5541 143.101 86.6937 141.236 86.3351L139.39 85.9945C138.529 85.8332 138.135 85.6001 138.135 85.0265C138.135 84.417 138.744 84.0763 139.659 84.0763C140.716 84.0763 141.416 84.65 141.505 85.5822H143.889C143.71 83.5206 142.061 82.2478 139.659 82.2478C137.274 82.2478 135.751 83.4848 135.751 85.2595C135.751 86.7474 136.79 87.6976 138.511 88.0023L140.232 88.325C141.147 88.5043 141.541 88.7552 141.541 89.3648C141.541 90.046 140.806 90.3507 139.838 90.3507C138.601 90.3507 137.759 89.7233 137.741 88.7373H135.356C135.554 90.8706 137.077 92.1793 139.802 92.1793C142.527 92.1793 144.051 90.9423 144.051 88.9345ZM153.729 92.1793C156.508 92.1793 158.587 89.9922 158.587 87.2135C158.587 84.417 156.508 82.2478 153.729 82.2478C150.951 82.2478 148.871 84.417 148.871 87.2135C148.871 89.9922 150.951 92.1793 153.729 92.1793ZM153.729 89.9743C152.492 89.9743 151.435 88.9883 151.435 87.2135C151.435 85.4388 152.492 84.4707 153.729 84.4707C154.966 84.4707 156.024 85.4388 156.024 87.2135C156.024 88.9883 154.966 89.9743 153.729 89.9743ZM162.669 86.7833C162.669 85.2416 163.512 84.4528 164.498 84.4528C165.627 84.4528 166.183 85.2416 166.183 86.6578V92H168.657V85.8152C168.657 83.5027 167.33 82.2478 165.412 82.2478C164.157 82.2478 163.171 82.8394 162.472 83.7895V82.4271H160.178V92H162.669V86.7833ZM35.6665 111.214C35.6665 108.399 33.9993 106.248 31.4178 106.248C30.1988 106.248 29.1411 106.804 28.4061 107.825V106.427H26.1115V119.46H28.6033V114.763C29.3204 115.695 30.2884 116.179 31.4178 116.179C33.9993 116.179 35.6665 114.046 35.6665 111.214ZM33.1029 111.214C33.1029 113.042 32.0811 113.956 30.8621 113.956C29.643 113.956 28.6212 113.024 28.6212 111.214C28.6212 109.403 29.643 108.453 30.8621 108.453C32.0811 108.453 33.1029 109.421 33.1029 111.214ZM39.755 111.357C39.755 109.242 41.1713 108.74 43.2866 108.901V106.32C41.7449 106.32 40.257 107.055 39.5578 108.274V106.427H37.2632V116H39.755V111.357ZM48.7417 116.179C51.5204 116.179 53.5999 113.992 53.5999 111.214C53.5999 108.417 51.5204 106.248 48.7417 106.248C45.963 106.248 43.8835 108.417 43.8835 111.214C43.8835 113.992 45.963 116.179 48.7417 116.179ZM48.7417 113.974C47.5048 113.974 46.4471 112.988 46.4471 111.214C46.4471 109.439 47.5048 108.471 48.7417 108.471C49.9787 108.471 51.0363 109.439 51.0363 111.214C51.0363 112.988 49.9787 113.974 48.7417 113.974ZM58.0763 104.204C58.0763 103.326 57.395 102.698 56.4091 102.698C55.4231 102.698 54.7419 103.326 54.7419 104.204C54.7419 105.047 55.4231 105.674 56.4091 105.674C57.395 105.674 58.0763 105.047 58.0763 104.204ZM57.6639 106.427H55.19V115.892C55.19 116.95 54.7239 117.345 54.0607 117.345C53.6483 117.345 53.2898 117.273 53.0209 117.129V119.442C53.4511 119.603 53.9172 119.639 54.3654 119.639C56.2657 119.639 57.6639 118.546 57.6639 115.964V106.427ZM64.0409 116.161C66.3713 116.161 68.0385 114.924 68.5763 112.755H66.1024C65.8156 113.705 65.0806 114.243 63.9871 114.243C62.7143 114.243 61.9613 113.383 61.8 111.823H68.5943C69.0424 108.704 67.0346 106.248 64.005 106.248C61.2443 106.248 59.2544 108.327 59.2544 111.178C59.2544 114.171 61.1726 116.161 64.0409 116.161ZM63.9512 108.076C65.1344 108.076 65.8873 108.919 65.959 110.245H61.8359C62.051 108.829 62.786 108.076 63.9512 108.076ZM74.1218 116.179C76.6853 116.179 78.478 114.548 78.7648 111.913H76.1475C76.0041 113.221 75.2691 113.974 74.1218 113.974C72.8131 113.974 72.0064 112.935 72.0064 111.214C72.0064 109.51 72.831 108.453 74.1218 108.453C75.2511 108.453 76.022 109.242 76.1475 110.514H78.7648C78.46 107.933 76.6136 106.248 74.1218 106.248C71.4327 106.248 69.4608 108.345 69.4608 111.214C69.4608 114.136 71.361 116.179 74.1218 116.179ZM86.3163 113.58C85.9578 113.777 85.5276 113.885 85.0615 113.885C84.1651 113.885 83.6632 113.436 83.6632 112.325V108.56H86.406V106.427H83.6632V103.595H81.1893V106.427H79.2532V108.56H81.1893V112.899C81.1893 115.05 82.4262 116.179 84.3982 116.179C85.1332 116.179 85.7068 116.054 86.3163 115.749V113.58Z" fill="white"/>
<path d="M306.025 87.3857C305.246 88.2725 304.361 89.0579 303.39 89.7276H304.93C305.828 89.7476 306.541 90.4973 306.523 91.4027V99.9223C306.54 100.828 305.828 101.577 304.93 101.597H256.072C255.174 101.577 254.46 100.828 254.478 99.9223V91.4027C254.461 90.4973 255.174 89.7476 256.072 89.7276H269.304C269.962 89.7276 270.592 89.4649 271.058 88.9965C271.524 88.5281 271.783 87.8926 271.783 87.2286V83.183C271.78 82.5461 272.045 81.9363 272.512 81.5079H274.394C275.091 81.5079 275.755 81.2123 276.225 80.6939C276.694 80.1756 276.926 79.4815 276.863 78.7818C276.503 73.9294 275.384 69.164 273.547 64.6643C272.566 62.2153 271.211 59.939 269.528 57.914C267.259 55.2193 266.015 51.7992 266.017 48.2634C265.941 44.3735 267.421 40.6178 270.122 37.8388C272.822 35.0613 276.518 33.4962 280.376 33.4962C284.234 33.4962 287.93 35.0613 290.631 37.8388C293.331 40.6163 294.811 44.3735 294.735 48.2634C294.748 51.5693 293.66 54.7838 291.645 57.3914C290.162 59.2621 288.914 61.3099 287.93 63.4876C287.553 64.353 287.154 65.3241 286.76 66.4179C287.815 65.6082 288.977 64.9514 290.212 64.4658C291.114 62.4852 292.252 60.623 293.603 58.9222C295.95 55.8734 297.222 52.122 297.215 48.262C297.29 43.7094 295.549 39.3183 292.384 36.0724C289.215 32.8293 284.889 31 280.373 31C275.859 31 271.532 32.8293 268.367 36.0738C265.202 39.3197 263.461 43.7123 263.538 48.2649C263.529 52.3947 264.984 56.3918 267.64 59.5363C269.154 61.3599 270.374 63.4134 271.256 65.6182C272.994 69.888 274.053 74.4063 274.394 79.0089H272.3C270.988 79.0089 269.306 80.8782 269.306 83.183V87.2272H256.072C254.983 87.2372 253.942 87.6813 253.178 88.4638C252.415 89.2492 251.992 90.306 252 91.4027V99.9223C251.996 100.849 252.298 101.75 252.858 102.484C253.419 103.218 254.208 103.741 255.097 103.972V107.638C255.116 108.539 255.488 109.394 256.133 110.02C256.777 110.645 257.641 110.987 258.533 110.97H302.467C303.361 110.985 304.225 110.644 304.868 110.02C305.51 109.396 305.884 108.539 305.903 107.638V103.972C306.794 103.741 307.581 103.217 308.142 102.484C308.703 101.75 309.004 100.849 309 99.9223V91.4027C309.004 90.4973 308.717 89.6162 308.179 88.8908C307.643 88.1668 306.887 87.6384 306.025 87.3857ZM303.426 107.638C303.386 108.132 302.96 108.505 302.469 108.471H258.533C258.042 108.503 257.615 108.132 257.576 107.638V104.098H303.424L303.426 107.638Z" fill="white"/>
<path d="M282.627 77.7903C282.627 80.9498 283.882 83.9788 286.116 86.2126C288.349 88.4464 291.378 89.7015 294.537 89.7015C297.697 89.7015 300.725 88.4464 302.959 86.2126C305.193 83.9788 306.448 80.9498 306.448 77.7903C306.448 74.6309 305.193 71.6019 302.959 69.3681C300.725 67.1343 297.695 65.8806 294.537 65.8806C291.38 65.8835 288.352 67.1401 286.12 69.3739C283.886 71.6048 282.63 74.6324 282.627 77.7903ZM303.939 77.7903C303.939 80.2849 302.949 82.6763 301.185 84.4387C299.423 86.2025 297.03 87.1926 294.537 87.1926C292.044 87.1926 289.652 86.2025 287.889 84.4387C286.126 82.6763 285.136 80.2835 285.136 77.7903C285.136 75.2972 286.126 72.9044 287.889 71.142C289.652 69.3782 292.044 68.3881 294.537 68.3881C297.03 68.3909 299.42 69.3825 301.182 71.1449C302.945 72.9072 303.936 75.2972 303.939 77.7903Z" fill="white"/>
<path d="M291.614 77.1236C291.183 76.6388 290.409 76.5675 289.884 76.9655C289.359 77.3634 289.281 78.0763 289.713 78.5611L291.681 80.7789C292.097 81.2468 292.837 81.3311 293.363 80.9708L299.996 76.434C300.258 76.2551 300.432 75.9868 300.48 75.69C300.528 75.3932 300.446 75.0885 300.252 74.8475C300.059 74.6051 299.768 74.4443 299.445 74.4003C299.122 74.3562 298.794 74.4327 298.532 74.6115L292.841 78.5054L291.614 77.1236Z" fill="white"/>
</svg>
