<svg width="365" height="146" viewBox="0 0 365 146" fill="none" xmlns="http://www.w3.org/2000/svg">
<rect width="365" height="146" rx="19.0237" fill="#3A304E"/>
<path d="M40.6168 72H43.7557L47.5265 57.3653H44.4895L42.1047 67.3324L39.4958 57.3653H36.3365L33.646 67.2916L31.2816 57.3653H28.265L32.0154 72H35.1543L37.8855 61.768L40.6168 72ZM52.9021 72.1834C55.5518 72.1834 57.4474 70.777 58.0589 68.3108H55.2461C54.9199 69.391 54.0843 70.0025 52.8409 70.0025C51.3938 70.0025 50.5377 69.0241 50.3543 67.2509H58.0792C58.5888 63.7043 56.306 60.9119 52.8613 60.9119C49.7224 60.9119 47.4599 63.2763 47.4599 66.5171C47.4599 69.921 49.6409 72.1834 52.9021 72.1834ZM52.8002 62.9909C54.1454 62.9909 55.0015 63.9489 55.083 65.4572H50.395C50.6396 63.847 51.4753 62.9909 52.8002 62.9909ZM64.5066 72.1834C67.1563 72.1834 69.0519 70.777 69.6634 68.3108H66.8506C66.5245 69.391 65.6888 70.0025 64.4455 70.0025C62.9983 70.0025 62.1422 69.0241 61.9588 67.2509H69.6838C70.1933 63.7043 67.9105 60.9119 64.4658 60.9119C61.3269 60.9119 59.0645 63.2763 59.0645 66.5171C59.0645 69.921 61.2454 72.1834 64.5066 72.1834ZM64.4047 62.9909C65.7499 62.9909 66.606 63.9489 66.6875 65.4572H61.9995C62.2441 63.847 63.0798 62.9909 64.4047 62.9909ZM74.4146 72V66.9451L78.5726 72H82.1804L77.1459 66.3336L81.6504 61.1157H78.3892L74.4146 65.7222V57.3653H71.5814V72H74.4146ZM86.3381 72V57.3653H83.4845V72H86.3381ZM98.6827 61.1157H95.8496L93.3629 68.5757L90.6316 61.1157H87.5742L91.8546 71.8777L90.3055 75.9338H93.3833L98.6827 61.1157ZM115.661 67.4547C115.661 65.2941 114.275 64.1119 111.707 63.6024L109.2 63.0928C108.14 62.889 107.223 62.461 107.223 61.4622C107.223 60.4431 108.079 59.587 109.587 59.587C111.136 59.587 112.196 60.6265 112.298 62.1552H115.437C115.233 59.0978 112.828 57.1819 109.546 57.1819C106.387 57.1819 104.084 59.0571 104.084 61.666C104.084 64.0916 105.796 65.2941 108.017 65.7222L110.423 66.191C111.666 66.4356 112.379 66.9859 112.379 67.9031C112.379 69.0853 111.258 69.7783 109.689 69.7783C107.793 69.7783 106.754 68.7388 106.672 67.1286H103.533C103.758 70.2267 106.061 72.2038 109.75 72.2038C113.419 72.2038 115.661 70.2471 115.661 67.4547ZM122.43 72.1834C125.079 72.1834 126.975 70.777 127.586 68.3108H124.774C124.448 69.391 123.612 70.0025 122.369 70.0025C120.921 70.0025 120.065 69.0241 119.882 67.2509H127.607C128.116 63.7043 125.834 60.9119 122.389 60.9119C119.25 60.9119 116.988 63.2763 116.988 66.5171C116.988 69.921 119.168 72.1834 122.43 72.1834ZM122.328 62.9909C123.673 62.9909 124.529 63.9489 124.611 65.4572H119.923C120.167 63.847 121.003 62.9909 122.328 62.9909ZM138.697 68.5146C138.697 66.9451 137.617 65.9668 135.497 65.5591L133.398 65.1718C132.419 64.9884 131.971 64.7234 131.971 64.0712C131.971 63.3782 132.664 62.9909 133.703 62.9909C134.906 62.9909 135.701 63.6431 135.803 64.703H138.514C138.31 62.359 136.435 60.9119 133.703 60.9119C130.992 60.9119 129.26 62.3183 129.26 64.3362C129.26 66.0279 130.442 67.1082 132.399 67.4547L134.356 67.8216C135.395 68.0254 135.843 68.3108 135.843 69.0038C135.843 69.7783 135.008 70.1248 133.907 70.1248C132.501 70.1248 131.543 69.4114 131.522 68.2904H128.812C129.036 70.7159 130.768 72.2038 133.866 72.2038C136.965 72.2038 138.697 70.7974 138.697 68.5146ZM149.824 68.5146C149.824 66.9451 148.744 65.9668 146.624 65.5591L144.524 65.1718C143.546 64.9884 143.098 64.7234 143.098 64.0712C143.098 63.3782 143.791 62.9909 144.83 62.9909C146.033 62.9909 146.828 63.6431 146.93 64.703H149.64C149.437 62.359 147.561 60.9119 144.83 60.9119C142.119 60.9119 140.387 62.3183 140.387 64.3362C140.387 66.0279 141.569 67.1082 143.526 67.4547L145.482 67.8216C146.522 68.0254 146.97 68.3108 146.97 69.0038C146.97 69.7783 146.135 70.1248 145.034 70.1248C143.628 70.1248 142.67 69.4114 142.649 68.2904H139.938C140.163 70.7159 141.895 72.2038 144.993 72.2038C148.091 72.2038 149.824 70.7974 149.824 68.5146ZM155.04 58.5883C155.04 57.5895 154.265 56.8761 153.144 56.8761C152.043 56.8761 151.269 57.5895 151.269 58.5883C151.269 59.5463 152.043 60.2596 153.144 60.2596C154.265 60.2596 155.04 59.5463 155.04 58.5883ZM154.591 72V61.1157H151.758V72H154.591ZM161.923 72.2038C165.082 72.2038 167.446 69.7172 167.446 66.5579C167.446 63.3782 165.082 60.9119 161.923 60.9119C158.764 60.9119 156.399 63.3782 156.399 66.5579C156.399 69.7172 158.764 72.2038 161.923 72.2038ZM161.923 69.6968C160.516 69.6968 159.314 68.5757 159.314 66.5579C159.314 64.54 160.516 63.4393 161.923 63.4393C163.329 63.4393 164.532 64.54 164.532 66.5579C164.532 68.5757 163.329 69.6968 161.923 69.6968ZM172.088 66.0687C172.088 64.3158 173.046 63.4189 174.167 63.4189C175.451 63.4189 176.083 64.3158 176.083 65.926V72H178.895V64.968C178.895 62.3387 177.387 60.9119 175.206 60.9119C173.779 60.9119 172.658 61.5845 171.863 62.6648V61.1157H169.254V72H172.088V66.0687ZM38.1913 97H41.0041L44.1226 86.1157H41.3302L39.4958 93.005L37.5594 86.1157H34.767L32.7695 93.005L30.9147 86.1157H28.1631L31.2612 97H34.0944L36.1326 89.9273L38.1913 97ZM48.8275 83.5883C48.8275 82.5895 48.0529 81.8761 46.9319 81.8761C45.8312 81.8761 45.0567 82.5895 45.0567 83.5883C45.0567 84.5463 45.8312 85.2596 46.9319 85.2596C48.0529 85.2596 48.8275 84.5463 48.8275 83.5883ZM48.3791 97V86.1157H45.5459V97H48.3791ZM57.6673 94.2484C57.2596 94.4726 56.7705 94.5949 56.2405 94.5949C55.2214 94.5949 54.6507 94.0853 54.6507 92.8216V88.5412H57.7692V86.1157H54.6507V82.8953H51.8379V86.1157H49.6366V88.5412H51.8379V93.4738C51.8379 95.9197 53.2443 97.2038 55.4864 97.2038C56.322 97.2038 56.9743 97.0611 57.6673 96.7146V94.2484ZM62.3324 91.0687C62.3324 89.3158 63.2903 88.4189 64.4114 88.4189C65.6955 88.4189 66.3273 89.3158 66.3273 90.926V97H69.1401V89.968C69.1401 87.3387 67.6318 85.9119 65.4509 85.9119C64.0241 85.9119 63.0865 86.5437 62.3324 87.5425V82.3653H59.4992V97H62.3324V91.0687ZM85.9304 94.3095H79.1838V90.8037H85.1763V88.1336H79.1838V85.0558H85.7877V82.3653H76.0856V97H85.9304V94.3095ZM90.2227 97L92.6075 93.0865L95.0534 97H98.2738L94.6253 91.5579L98.0088 86.1157H95.033L92.7909 89.8661L90.5692 86.1157H87.308L90.7323 91.4559L87.0634 97H90.2227ZM110.631 91.5579C110.631 88.3578 108.735 85.9119 105.8 85.9119C104.414 85.9119 103.211 86.5437 102.376 87.7056V86.1157H99.7667V100.934H102.6V95.5936C103.415 96.6535 104.516 97.2038 105.8 97.2038C108.735 97.2038 110.631 94.7783 110.631 91.5579ZM107.716 91.5579C107.716 93.6369 106.554 94.6764 105.168 94.6764C103.782 94.6764 102.62 93.6165 102.62 91.5579C102.62 89.4992 103.782 88.4189 105.168 88.4189C106.554 88.4189 107.716 89.5196 107.716 91.5579ZM117.175 97.1834C119.825 97.1834 121.72 95.777 122.332 93.3108H119.519C119.193 94.391 118.357 95.0025 117.114 95.0025C115.667 95.0025 114.81 94.0241 114.627 92.2509H122.352C122.862 88.7043 120.579 85.9119 117.134 85.9119C113.995 85.9119 111.733 88.2763 111.733 91.5171C111.733 94.921 113.914 97.1834 117.175 97.1834ZM117.073 87.9909C118.418 87.9909 119.274 88.9489 119.356 90.4572H114.668C114.912 88.847 115.748 87.9909 117.073 87.9909ZM127.083 91.7209C127.083 89.3158 128.693 88.7451 131.098 88.9285V85.9934C129.345 85.9934 127.654 86.8291 126.859 88.2151V86.1157H124.25V97H127.083V91.7209ZM140.034 94.2484C139.626 94.4726 139.137 94.5949 138.607 94.5949C137.588 94.5949 137.017 94.0853 137.017 92.8216V88.5412H140.135V86.1157H137.017V82.8953H134.204V86.1157H132.003V88.5412H134.204V93.4738C134.204 95.9197 135.611 97.2038 137.853 97.2038C138.688 97.2038 139.341 97.0611 140.034 96.7146V94.2484Z" fill="white"/>
<path d="M323.339 73.5498C323.339 75.2497 323.339 75.2497 321.897 75.2497C320.801 75.2497 320.801 75.2497 320.801 73.2057C320.801 71.8944 320.801 71.8944 322.286 71.8944C323.339 71.8944 323.339 71.8944 323.339 73.5498Z" fill="white"/>
<path d="M283.254 32.7494C283.079 33.3759 283.192 34.0131 283.185 34.6461C283.18 35.0169 283.06 35.1341 282.627 35.1533C280.493 35.2471 280.496 35.2598 280.467 33.3738C280.465 33.165 280.417 32.9582 280.391 32.7494C281.345 32.7494 282.3 32.7494 283.254 32.7494Z" fill="white"/>
<path d="M236 72.2965C236.703 72.4521 237.419 72.3519 238.129 72.3583C238.545 72.3626 238.677 72.4691 238.698 72.8549C238.804 74.7558 238.818 74.7537 236.701 74.7793C236.466 74.7814 236.234 74.824 236 74.8475C236 73.9971 236 73.1468 236 72.2965Z" fill="white"/>
<path d="M281.849 114.395C280.469 114.395 280.469 114.395 280.469 113.044C280.469 111.999 280.469 111.999 282.105 111.999C283.174 111.999 283.174 111.999 283.172 113.391C283.172 114.395 283.172 114.395 281.849 114.395Z" fill="white"/>
<path d="M321.368 72.3733C314.27 72.401 307.17 72.384 300.071 72.3989C299.475 72.401 299.221 72.3222 299.133 71.6978C298.097 64.5372 291.995 59.0815 283.969 58.1545C283.211 58.0671 283.146 57.8135 283.149 57.2658C283.163 51.1815 283.158 45.095 283.158 39.0107C283.158 37.5295 283.156 37.5764 281.477 37.5125C280.632 37.4805 280.465 37.7277 280.467 38.4331C280.498 44.7306 280.486 51.028 280.484 57.3255C280.484 57.7091 280.589 58.0522 279.876 58.1332C271.719 59.0751 265.763 64.2623 264.543 71.5166C264.411 72.303 264.105 72.4053 263.33 72.4032C256.56 72.3776 249.788 72.3883 243.018 72.3883C241.368 72.3883 241.421 72.3904 241.349 73.895C241.313 74.6472 241.588 74.7985 242.382 74.7964C249.451 74.7687 256.52 74.7879 263.588 74.7687C264.205 74.7666 264.423 74.8753 264.512 75.4826C265.559 82.6027 271.602 88.0051 279.627 88.9811C280.405 89.0749 280.498 89.32 280.498 89.9125C280.477 95.9179 280.486 101.923 280.486 107.929C280.486 109.632 280.486 109.606 282.39 109.623C283.029 109.63 283.177 109.455 283.173 108.909C283.144 105.721 283.158 102.533 283.158 99.3427C283.158 96.1524 283.17 92.9642 283.146 89.7761C283.142 89.2625 283.261 89.0707 283.9 88.9961C291.942 88.0733 298.016 82.6986 299.123 75.5018C299.226 74.8348 299.501 74.7687 300.118 74.7687C306.919 74.7836 313.72 74.7772 320.521 74.7772C322.279 74.7772 322.241 74.7751 322.293 73.2002C322.317 72.5417 322.119 72.3712 321.368 72.3733ZM281.752 86.7136C273.604 86.671 267.045 80.7913 267.066 73.5497C267.088 66.2592 273.721 60.39 281.893 60.4327C290.045 60.4732 296.6 66.3465 296.578 73.5966C296.557 80.8829 289.918 86.7563 281.752 86.7136Z" fill="white"/>
<path d="M265.564 58.8896C265.327 56.0297 264.042 53.6151 261.693 51.6715C261.181 51.2496 261.026 51.0194 261.452 50.4056C263.346 47.6757 263.449 44.8072 261.732 42.0048C259.993 39.1704 257.189 37.7447 253.462 37.6317C249.888 37.7383 247.046 39.1405 245.288 42.0133C243.549 44.8519 243.707 47.7268 245.611 50.4866C245.929 50.9491 245.987 51.1601 245.472 51.5607C243.358 53.2081 242.104 55.3157 241.595 57.7708C241.222 59.5567 241.238 59.5183 243.202 59.5737C243.965 59.595 244.133 59.3521 244.193 58.749C244.413 56.4985 245.554 54.6594 247.448 53.1718C247.793 52.9012 248.046 52.8095 248.52 53.0632C251.828 54.8277 255.177 54.8362 258.495 53.0781C258.94 52.8415 259.191 52.8607 259.567 53.1548C261.265 54.4825 262.315 56.1213 262.777 58.0905C262.889 58.5678 262.576 59.2498 263.095 59.4821C263.576 59.6952 264.265 59.5119 264.856 59.5631C265.463 59.6121 265.605 59.4032 265.564 58.8896ZM253.474 51.9912C249.778 51.9486 246.759 49.2314 246.788 45.9729C246.817 42.6825 249.843 40.0271 253.543 40.0441C257.27 40.0612 260.215 42.7144 260.198 46.0347C260.184 49.3294 257.132 52.0317 253.474 51.9912Z" fill="white"/>
<path d="M322.304 58.9365C322.076 56.0147 320.761 53.5576 318.335 51.5969C317.826 51.1856 317.826 50.9512 318.17 50.4504C320.069 47.6863 320.196 44.7987 318.45 41.9749C316.701 39.1491 313.891 37.7297 310.18 37.6317C306.623 37.7425 303.805 39.1363 302.047 41.9685C300.308 44.7688 300.411 47.6309 302.277 50.3694C302.698 50.9874 302.588 51.241 302.045 51.6843C299.949 53.3935 298.701 55.5331 298.296 58.0372C298.052 59.546 298.091 59.497 299.791 59.5716C300.655 59.6099 300.873 59.3542 300.947 58.6339C301.169 56.4133 302.332 54.6061 304.207 53.1484C304.521 52.9054 304.757 52.7925 305.207 53.0333C308.542 54.8298 311.912 54.8448 315.256 53.0546C315.728 52.8032 315.974 52.8991 316.326 53.174C317.998 54.4825 319.036 56.1 319.5 58.0393C319.62 58.5337 319.306 59.2391 319.866 59.4863C320.347 59.6995 321.038 59.5119 321.629 59.5588C322.194 59.6036 322.344 59.4288 322.304 58.9365ZM310.211 51.9912C306.516 51.9486 303.499 49.2314 303.528 45.9729C303.557 42.6825 306.585 40.0271 310.286 40.0441C314.013 40.0612 316.957 42.7144 316.941 46.0368C316.924 49.3316 313.869 52.0338 310.211 51.9912Z" fill="white"/>
<path d="M265.561 108.954C265.322 106.064 264.009 103.637 261.621 101.683C261.152 101.299 261.009 101.073 261.415 100.542C262.43 99.219 262.903 97.7187 262.901 96.1055C262.867 95.6814 262.872 95.253 262.798 94.8353C262.205 91.4724 259.38 88.7169 255.758 87.9454C251.969 87.1398 248.07 88.4441 245.826 91.2699C243.616 94.0532 243.534 97.6974 245.656 100.632C245.953 101.041 245.96 101.235 245.525 101.58C243.257 103.377 241.901 105.629 241.537 108.325C241.362 109.621 241.389 109.625 242.848 109.625C244.063 109.625 244.046 109.623 244.219 108.496C244.544 106.35 245.675 104.594 247.517 103.189C247.819 102.959 248.044 102.882 248.445 103.098C251.811 104.918 255.203 104.918 258.574 103.106C258.959 102.899 259.184 102.94 259.499 103.183C261.241 104.513 262.308 106.173 262.777 108.172C262.889 108.647 262.568 109.329 263.1 109.559C263.585 109.77 264.272 109.585 264.863 109.638C265.489 109.687 265.602 109.455 265.561 108.954ZM253.478 102.062C249.783 102.024 246.764 99.3107 246.788 96.0479C246.812 92.7596 249.838 90.1 253.538 90.1149C257.265 90.1298 260.215 92.7809 260.198 96.1012C260.186 99.398 257.138 102.098 253.478 102.062Z" fill="white"/>
<path d="M322.307 109.014C322.08 106.092 320.764 103.637 318.343 101.672C317.843 101.267 317.817 101.037 318.169 100.525C320.073 97.7635 320.202 94.8759 318.456 92.05C316.71 89.222 313.899 87.8005 310.198 87.7025C306.632 87.8112 303.814 89.2028 302.055 92.0351C300.297 94.8631 300.424 97.7465 302.321 100.506C302.706 101.065 302.634 101.286 302.12 101.698C299.986 103.413 298.714 105.57 298.3 108.102C298.053 109.617 298.092 109.57 299.788 109.642C300.642 109.679 300.876 109.442 300.948 108.711C301.166 106.49 302.333 104.685 304.201 103.219C304.567 102.932 304.823 102.906 305.278 103.147C308.56 104.884 311.887 104.903 315.179 103.172C315.707 102.895 315.985 102.963 316.394 103.29C318.023 104.598 319.044 106.192 319.501 108.104C319.621 108.6 319.315 109.306 319.865 109.553C320.341 109.768 321.035 109.583 321.628 109.627C322.176 109.672 322.345 109.517 322.307 109.014ZM310.251 102.062C306.569 102.053 303.536 99.3512 303.529 96.0778C303.524 92.8002 306.55 90.1149 310.248 90.1149C313.978 90.1149 316.942 92.7554 316.942 96.0736C316.942 99.3747 313.928 102.071 310.251 102.062Z" fill="white"/>
<path d="M250.831 46.7935C249.465 46.7935 249.465 46.7935 249.465 45.4359C249.465 44.3981 249.465 44.3981 251.108 44.4002C252.156 44.4002 252.156 44.4002 252.154 45.8813C252.154 46.7935 252.154 46.7935 250.831 46.7935Z" fill="white"/>
<path d="M257.524 45.5894C257.524 46.7935 257.524 46.7935 255.996 46.7935C254.836 46.7935 254.836 46.7935 254.838 45.4104C254.838 44.3981 254.838 44.3896 256.51 44.4045C257.687 44.4131 257.505 44.2127 257.524 45.5894Z" fill="white"/>
<path d="M308.896 45.5915C308.896 46.7935 308.896 46.7935 307.365 46.7935C306.207 46.7935 306.207 46.7935 306.209 45.4082C306.209 44.3981 306.209 44.3981 307.884 44.4002C308.896 44.4002 308.896 44.4002 308.896 45.5915Z" fill="white"/>
<path d="M312.937 46.7935C311.576 46.7935 311.576 46.7935 311.576 45.4317C311.576 44.4003 311.576 44.4003 313.224 44.4003C314.265 44.4003 314.265 44.4003 314.265 45.8878C314.263 46.7935 314.263 46.7935 312.937 46.7935Z" fill="white"/>
<path d="M250.852 96.8641C249.465 96.8641 249.465 96.8641 249.465 95.5257C249.465 94.4708 249.465 94.4708 251.087 94.4708C252.154 94.4708 252.154 94.4708 252.154 95.9328C252.154 96.8641 252.154 96.8641 250.852 96.8641Z" fill="white"/>
<path d="M257.523 95.7368C257.523 96.8663 257.523 96.8663 255.999 96.8663C254.834 96.8663 254.834 96.8663 254.834 95.4875C254.834 94.471 254.834 94.471 256.499 94.4731C257.523 94.471 257.523 94.471 257.523 95.7368Z" fill="white"/>
<path d="M308.895 95.6792C308.895 96.8663 308.895 96.8663 307.348 96.8641C306.209 96.8641 306.209 96.8641 306.209 95.4619C306.209 94.4688 306.209 94.4688 307.812 94.4688C308.895 94.4709 308.895 94.4709 308.895 95.6792Z" fill="white"/>
<path d="M312.937 96.8641C311.576 96.8641 311.576 96.8641 311.576 95.5023C311.576 94.4708 311.576 94.4708 313.224 94.4708C314.265 94.4708 314.265 94.4708 314.265 95.9583C314.263 96.8641 314.263 96.8641 312.937 96.8641Z" fill="white"/>
<path d="M276.685 65.1851C276.632 65.3833 276.596 65.4578 276.596 65.5303C276.592 70.8176 276.596 76.1028 276.582 81.3901C276.58 82.1807 276.993 81.7993 277.324 81.6309C280.919 79.8045 284.51 77.976 288.102 76.1454C289.746 75.3079 291.387 74.4703 293.155 73.5689C287.61 70.7473 282.196 67.9917 276.685 65.1851ZM279.323 77.8588C279.323 74.9754 279.323 72.2071 279.323 69.2896C282.122 70.7111 284.856 72.0984 287.746 73.5668C284.883 75.0266 282.149 76.4203 279.323 77.8588Z" fill="white"/>
</svg>
