<svg width="365" height="146" viewBox="0 0 365 146" fill="none" xmlns="http://www.w3.org/2000/svg">
<rect width="365" height="146" rx="16.7317" fill="#3A304E"/>
<path d="M37.7163 68H40.3874V55.1285H37.8777V63.6617L32.2666 55.1285H29.3266V68H31.8184V59.0187L37.7163 68ZM45.7592 68V63.088H50.4739V60.7396H45.7592V57.4949H51.3524V55.1285H43.0343V68H45.7592ZM58.9777 68V57.5845H63.0471V55.1285H52.2014V57.5845H56.2528V68H58.9777ZM72.4346 68.1793C75.2133 68.1793 77.2928 65.9922 77.2928 63.2135C77.2928 60.417 75.2133 58.2478 72.4346 58.2478C69.6559 58.2478 67.5764 60.417 67.5764 63.2135C67.5764 65.9922 69.6559 68.1793 72.4346 68.1793ZM72.4346 65.9743C71.1976 65.9743 70.14 64.9883 70.14 63.2135C70.14 61.4388 71.1976 60.4707 72.4346 60.4707C73.6715 60.4707 74.7292 61.4388 74.7292 63.2135C74.7292 64.9883 73.6715 65.9743 72.4346 65.9743ZM81.3748 62.7833C81.3748 61.2416 82.2173 60.4528 83.2033 60.4528C84.3327 60.4528 84.8884 61.2416 84.8884 62.6578V68H87.3623V61.8152C87.3623 59.5027 86.0357 58.2478 84.1176 58.2478C82.8627 58.2478 81.8767 58.8394 81.1776 59.7895V58.4271H78.8829V68H81.3748V62.7833ZM35.0273 92.2689C38.4155 92.2689 41.0687 90.028 41.5168 86.6937H38.6306C38.3079 88.5401 36.8917 89.8309 35.0632 89.8309C32.8582 89.8309 31.3702 88.074 31.3702 85.5463C31.3702 83.0366 32.8582 81.2977 35.0632 81.2977C36.8917 81.2977 38.3259 82.5705 38.6306 84.417H41.5168C41.0687 81.1184 38.4155 78.8596 35.0273 78.8596C31.4061 78.8596 28.5737 81.7817 28.5737 85.5463C28.5737 89.3289 31.4061 92.2689 35.0273 92.2689ZM47.4351 92.1793C50.2137 92.1793 52.2932 89.9922 52.2932 87.2135C52.2932 84.417 50.2137 82.2478 47.4351 82.2478C44.6564 82.2478 42.5769 84.417 42.5769 87.2135C42.5769 89.9922 44.6564 92.1793 47.4351 92.1793ZM47.4351 89.9743C46.1981 89.9743 45.1404 88.9883 45.1404 87.2135C45.1404 85.4388 46.1981 84.4707 47.4351 84.4707C48.672 84.4707 49.7297 85.4388 49.7297 87.2135C49.7297 88.9883 48.672 89.9743 47.4351 89.9743ZM56.3752 92V86.6578C56.3752 85.2237 57.164 84.4528 58.1679 84.4528C59.2615 84.4528 59.8351 85.2595 59.8351 86.604V92H62.309V86.6578C62.309 85.2237 63.1157 84.4528 64.1017 84.4528C65.1952 84.4528 65.7689 85.2595 65.7689 86.604V92H68.2428V85.8152C68.2428 83.5206 66.9341 82.2478 64.998 82.2478C63.5639 82.2478 62.5958 82.8932 61.8429 83.9509C61.3589 82.8573 60.355 82.2478 59.0463 82.2478C57.7735 82.2478 56.8772 82.8215 56.178 83.7895V82.4271H53.8834V92H56.3752ZM79.9297 87.2135C79.9297 84.399 78.2625 82.2478 75.681 82.2478C74.462 82.2478 73.4043 82.8035 72.6693 83.8254V82.4271H70.3747V95.4599H72.8665V90.763C73.5836 91.6952 74.5516 92.1793 75.681 92.1793C78.2625 92.1793 79.9297 90.046 79.9297 87.2135ZM77.3661 87.2135C77.3661 89.0421 76.3443 89.9563 75.1253 89.9563C73.9063 89.9563 72.8844 89.0241 72.8844 87.2135C72.8844 85.4029 73.9063 84.4528 75.1253 84.4528C76.3443 84.4528 77.3661 85.4209 77.3661 87.2135ZM84.0362 92V79.1285H81.5264V92H84.0362ZM90.4298 92.1613C92.7603 92.1613 94.4275 90.9244 94.9653 88.7552H92.4914C92.2045 89.7054 91.4695 90.2432 90.376 90.2432C89.1032 90.2432 88.3503 89.3827 88.1889 87.823H94.9832C95.4314 84.7038 93.4235 82.2478 90.3939 82.2478C87.6332 82.2478 85.6433 84.3273 85.6433 87.1777C85.6433 90.1715 87.5615 92.1613 90.4298 92.1613ZM90.3401 84.0763C91.5233 84.0763 92.2762 84.9189 92.3479 86.2455H88.2248C88.4399 84.8293 89.1749 84.0763 90.3401 84.0763ZM102.534 89.5799C102.175 89.7771 101.745 89.8846 101.279 89.8846C100.383 89.8846 99.8807 89.4365 99.8807 88.325V84.5604H102.624V82.4271H99.8807V79.5946H97.4068V82.4271H95.4707V84.5604H97.4068V88.8987C97.4068 91.0499 98.6438 92.1793 100.616 92.1793C101.351 92.1793 101.924 92.0538 102.534 91.749V89.5799ZM107.031 80.2041C107.031 79.3257 106.35 78.6983 105.364 78.6983C104.396 78.6983 103.715 79.3257 103.715 80.2041C103.715 81.0467 104.396 81.6741 105.364 81.6741C106.35 81.6741 107.031 81.0467 107.031 80.2041ZM106.637 92V82.4271H104.145V92H106.637ZM113.085 92.1793C115.864 92.1793 117.943 89.9922 117.943 87.2135C117.943 84.417 115.864 82.2478 113.085 82.2478C110.306 82.2478 108.227 84.417 108.227 87.2135C108.227 89.9922 110.306 92.1793 113.085 92.1793ZM113.085 89.9743C111.848 89.9743 110.79 88.9883 110.79 87.2135C110.79 85.4388 111.848 84.4707 113.085 84.4707C114.322 84.4707 115.38 85.4388 115.38 87.2135C115.38 88.9883 114.322 89.9743 113.085 89.9743ZM122.025 86.7833C122.025 85.2416 122.868 84.4528 123.854 84.4528C124.983 84.4528 125.539 85.2416 125.539 86.6578V92H128.013V85.8152C128.013 83.5027 126.686 82.2478 124.768 82.2478C123.513 82.2478 122.527 82.8394 121.828 83.7895V82.4271H119.533V92H122.025V86.7833Z" fill="white"/>
<path d="M255.493 112.401C253.755 112.401 252.017 112.401 250.174 112.401C250.174 110.554 250.174 108.827 250.174 106.985C248.347 106.985 246.618 106.985 244.758 106.985C244.758 105.423 244.718 103.974 244.773 102.531C244.802 101.771 244.556 101.542 243.804 101.573C242.382 101.63 240.956 101.59 239.414 101.59C239.414 98.0207 239.414 94.5203 239.414 90.9075C237.571 90.9075 235.845 90.9075 234.07 90.9075C234.048 90.5228 234.017 90.2447 234.017 89.9686C234.017 81.6841 234.031 73.4053 234 65.1246C233.996 64.2866 234.211 64.02 235.06 64.0638C236.446 64.1362 237.84 64.0829 239.351 64.0829C239.351 60.5101 239.351 57.0096 239.351 53.3816C241.261 53.3816 243.052 53.3816 244.842 53.3816L244.809 53.3568C244.809 56.8991 244.809 60.4415 244.809 64.1095C242.925 64.1095 241.202 64.1095 239.439 64.1095C239.439 73.0987 239.439 81.9602 239.439 90.9285C241.219 90.9285 242.942 90.9285 244.787 90.9285C244.787 94.5317 244.787 98.0303 244.787 101.643C246.631 101.643 248.354 101.643 250.161 101.643C250.161 103.46 250.161 105.161 250.161 106.981C251.971 106.981 253.694 106.981 255.468 106.981C255.468 108.878 255.468 110.651 255.468 112.426L255.493 112.401Z" fill="white"/>
<path d="M266.152 37.3897C266.152 35.6185 266.152 33.8454 266.152 32C275.122 32 284.009 32 292.973 32C292.973 33.8416 292.973 35.6147 292.973 37.3878L292.996 37.363C284.041 37.363 275.084 37.363 266.129 37.363L266.152 37.3897Z" fill="white"/>
<path d="M319.623 64.0391C321.393 64.0391 323.162 64.0391 325.003 64.0391C325.003 73.0396 325.003 81.9069 325.003 90.8713C323.204 90.8713 321.408 90.8713 319.613 90.8713L319.648 90.898C319.663 90.5514 319.689 90.2028 319.691 89.8562C319.695 83.7771 319.701 77.6961 319.693 71.617C319.691 69.084 319.663 66.553 319.646 64.02L319.623 64.0391Z" fill="white"/>
<path d="M292.973 117.736C292.973 119.471 292.973 121.208 292.973 123C284.016 123 275.16 123 266.154 123C266.154 121.253 266.154 119.494 266.154 117.734L266.127 117.755C266.378 117.734 266.63 117.696 266.881 117.696C275.368 117.692 283.854 117.692 292.341 117.694C292.56 117.694 292.781 117.734 293 117.755L292.973 117.736Z" fill="white"/>
<path d="M319.611 90.8713C319.637 93.0843 319.67 95.2993 319.689 97.5142C319.7 98.8378 319.691 100.163 319.691 101.594C317.899 101.594 316.175 101.594 314.362 101.594C314.362 103.397 314.362 105.094 314.362 106.92C312.556 106.92 310.835 106.92 309.016 106.92C309.016 108.77 309.016 110.495 309.016 112.402C307.155 112.402 305.394 112.402 303.631 112.402L303.656 112.426C303.656 110.632 303.656 108.836 303.656 106.913C305.493 106.913 307.216 106.913 309.024 106.913C309.024 105.084 309.024 103.384 309.024 101.563C310.836 101.563 312.559 101.563 314.358 101.563C314.358 97.9579 314.358 94.4803 314.358 90.8999C316.175 90.8999 317.909 90.8999 319.643 90.8999L319.611 90.8713Z" fill="white"/>
<path d="M266.154 117.734C262.629 117.734 259.101 117.734 255.493 117.734C255.493 115.854 255.493 114.127 255.493 112.402L255.469 112.424C255.714 112.39 255.96 112.329 256.205 112.329C259.029 112.323 261.85 112.327 264.673 112.327C265.138 112.327 265.604 112.327 266.126 112.327C266.126 114.218 266.126 115.988 266.126 117.757L266.154 117.734Z" fill="white"/>
<path d="M303.634 112.4C303.634 114.129 303.634 115.86 303.634 117.734C300.026 117.734 296.498 117.734 292.973 117.734L292.999 117.757C292.999 115.972 292.999 114.188 292.999 112.327C295.668 112.327 298.252 112.318 300.833 112.331C301.775 112.337 302.716 112.392 303.658 112.424L303.634 112.4Z" fill="white"/>
<path d="M255.499 42.7242C255.499 40.9644 255.499 39.2028 255.499 37.3897C259.103 37.3897 262.629 37.3897 266.152 37.3897L266.13 37.363C266.13 39.119 266.13 40.8768 266.13 42.6937C262.488 42.6937 258.977 42.6937 255.469 42.6937L255.499 42.7242Z" fill="white"/>
<path d="M314.283 53.3835C316.046 53.3835 317.807 53.3835 319.692 53.3835C319.692 54.0139 319.695 54.5738 319.692 55.1318C319.669 58.1009 319.644 61.07 319.619 64.0391L319.64 64.0219C317.908 64.0219 316.176 64.0219 314.314 64.0219C314.314 60.4415 314.314 56.8991 314.314 53.3568L314.283 53.3835Z" fill="white"/>
<path d="M292.975 37.3879C296.498 37.3879 300.022 37.3879 303.632 37.3879C303.632 39.199 303.632 40.9607 303.632 42.7204L303.658 42.6919C300.121 42.6919 296.584 42.6919 292.997 42.6919C292.997 40.8331 292.997 39.0962 292.997 37.3612L292.975 37.3879Z" fill="white"/>
<path d="M308.957 48.0507C310.714 48.0507 312.471 48.0507 314.284 48.0507C314.284 49.8733 314.284 51.6292 314.284 53.3832L314.314 53.3546C312.561 53.3546 310.806 53.3546 308.984 53.3546C308.984 51.4902 308.984 49.7552 308.984 48.0221L308.957 48.0507Z" fill="white"/>
<path d="M244.843 53.3817C244.843 51.6486 244.843 49.9156 244.843 48.053C246.596 48.053 248.382 48.053 250.17 48.053L250.139 48.0244C250.139 49.7803 250.139 51.5382 250.139 53.357C248.272 53.357 246.541 53.357 244.811 53.357L244.843 53.3817Z" fill="white"/>
<path d="M250.169 48.053C250.169 46.299 250.169 44.545 250.169 42.7243C251.991 42.7243 253.746 42.7243 255.5 42.7243L255.469 42.6919C255.469 44.4478 255.469 46.2038 255.469 48.0244C253.604 48.0244 251.873 48.0244 250.141 48.0244L250.169 48.053Z" fill="white"/>
<path d="M303.631 42.7205C305.386 42.7205 307.141 42.7205 308.959 42.7205C308.959 44.5393 308.959 46.2952 308.959 48.0512L308.988 48.0226C307.229 48.0226 305.472 48.0226 303.659 48.0226C303.659 46.16 303.659 44.425 303.659 42.6901L303.631 42.7205Z" fill="white"/>
<path d="M292.973 101.535C292.973 103.302 292.973 105.071 292.973 106.89C283.99 106.89 275.128 106.89 266.154 106.89C266.154 105.071 266.154 103.304 266.154 101.535L266.129 101.561C275.084 101.561 284.041 101.561 292.996 101.561L292.973 101.535Z" fill="white"/>
<path d="M255.495 90.8714C253.757 90.8714 252.019 90.8714 250.203 90.8714C250.203 81.9679 250.203 73.0911 250.203 64.0429C251.968 64.0429 253.731 64.0429 255.492 64.0429L255.467 64.0182C255.467 72.9788 255.467 81.9394 255.467 90.9L255.495 90.8714Z" fill="white"/>
<path d="M266.154 53.3798C266.154 51.641 266.154 49.9003 266.154 48.0948C275.092 48.0948 283.955 48.0948 292.973 48.0948C292.973 49.8527 292.973 51.6143 292.973 53.3779L293 53.3531C284.043 53.3531 275.086 53.355 266.129 53.355L266.154 53.3798Z" fill="white"/>
<path d="M303.635 64.0408C305.373 64.0408 307.111 64.0408 308.921 64.0408C308.921 73.0299 308.921 81.8972 308.921 90.873C307.16 90.873 305.398 90.873 303.633 90.873L303.658 90.8997C303.658 81.9391 303.659 72.9766 303.659 64.016L303.635 64.0408Z" fill="white"/>
<path d="M298.307 58.7123C300.039 58.7123 301.77 58.7123 303.635 58.7123C303.635 60.5329 303.635 62.287 303.635 64.041L303.66 64.0162C301.905 64.0162 300.149 64.0162 298.329 64.0162C298.329 62.2108 298.329 60.4491 298.329 58.6875L298.307 58.7123Z" fill="white"/>
<path d="M260.824 58.7105C260.824 56.9755 260.824 55.2405 260.824 53.3799C262.638 53.3799 264.395 53.3799 266.154 53.3799L266.127 53.3551C266.127 55.1072 266.127 56.8613 266.127 58.6877C264.302 58.6877 262.55 58.6877 260.797 58.6877L260.824 58.7105Z" fill="white"/>
<path d="M292.975 53.3775C294.707 53.3775 296.437 53.3775 298.307 53.3775C298.307 55.1982 298.307 56.9542 298.307 58.712L298.33 58.6853C296.573 58.6853 294.817 58.6853 293.001 58.6853C293.001 56.8646 293.001 55.1087 293.001 53.3528L292.975 53.3775Z" fill="white"/>
<path d="M260.824 96.2039C259.071 96.2039 257.317 96.2039 255.495 96.2039C255.495 94.3813 255.495 92.6273 255.495 90.8713L255.467 90.8999C257.226 90.8999 258.983 90.8999 260.797 90.8999C260.797 92.7606 260.797 94.4956 260.797 96.2306L260.824 96.2039Z" fill="white"/>
<path d="M266.152 101.535C264.422 101.535 262.693 101.535 260.824 101.535C260.824 99.7653 260.824 97.9846 260.824 96.202L260.797 96.2287C262.556 96.2287 264.315 96.2287 266.127 96.2287C266.127 98.0951 266.127 99.8282 266.127 101.559L266.152 101.535Z" fill="white"/>
<path d="M298.303 96.2061C298.303 97.9468 298.303 99.6894 298.303 101.537C296.489 101.537 294.732 101.537 292.975 101.537L292.997 101.563C292.997 99.8074 292.997 98.0515 292.997 96.2327C294.854 96.2327 296.59 96.2327 298.328 96.2327L298.303 96.2061Z" fill="white"/>
<path d="M255.494 64.0429C255.494 62.3079 255.494 60.5748 255.494 58.7104C257.306 58.7104 259.065 58.7104 260.826 58.7104L260.799 58.6875C260.799 60.4701 260.799 62.2546 260.799 64.0181C258.932 64.0181 257.201 64.0181 255.471 64.0181L255.494 64.0429Z" fill="white"/>
<path d="M303.633 90.8732C303.633 92.6139 303.633 94.3546 303.633 96.2057C301.827 96.2057 300.064 96.2057 298.303 96.2057L298.327 96.2305C298.327 94.4726 298.327 92.7148 298.327 90.8979C300.186 90.8979 301.922 90.8979 303.658 90.8979L303.633 90.8732Z" fill="white"/>
<path d="M284.588 80.9341C283.446 80.9341 282.408 80.9341 281.257 80.9341C281.257 82.0748 281.257 83.1394 281.257 84.2631C280.078 84.2631 279.016 84.2631 277.898 84.2631C277.898 79.7399 277.898 75.2549 277.898 70.7241C280.137 70.7241 282.317 70.7241 284.571 70.7241C284.571 71.8211 284.571 72.9048 284.571 74.0951C283.476 74.0951 282.414 74.0951 281.243 74.0951C281.243 75.1406 281.211 76.0871 281.272 77.0261C281.283 77.2013 281.67 77.4755 281.896 77.4907C282.772 77.546 283.655 77.5136 284.588 77.5136C284.588 78.6696 284.588 79.7342 284.588 80.9341Z" fill="white"/>
<path d="M291.487 74.0813C290.295 74.0813 289.231 74.0813 288.115 74.0813C288.115 72.931 288.115 71.8702 288.115 70.7466C291.479 70.7466 294.818 70.7466 298.23 70.7466C298.23 71.8302 298.23 72.9139 298.23 74.0851C297.127 74.0851 296.063 74.0851 294.904 74.0851C294.904 77.5113 294.904 80.8518 294.904 84.2551C293.722 84.2551 292.637 84.2551 291.487 84.2551C291.487 80.8727 291.487 77.557 291.487 74.0813Z" fill="white"/>
<path d="M267.609 77.6271C268.706 77.5681 269.802 77.5072 271.011 77.4424C271.011 75.218 271.011 73.0164 271.011 70.752C272.188 70.752 273.25 70.752 274.385 70.752C274.385 75.2313 274.385 79.7164 274.385 84.2624C273.277 84.2624 272.216 84.2624 271.076 84.2624C271.076 83.1787 271.076 82.1408 271.076 80.9562C269.919 80.9562 268.833 80.9562 267.632 80.9562C267.632 79.7392 267.632 78.6689 267.632 77.5986L267.609 77.6271Z" fill="white"/>
<path d="M267.632 77.5986C266.536 77.5986 265.437 77.5986 264.248 77.5986C264.248 79.8002 264.248 82.0017 264.248 84.2662C263.062 84.2662 261.971 84.2662 260.846 84.2662C260.846 79.7373 260.846 75.277 260.846 70.752C261.963 70.752 263.046 70.752 264.223 70.752C264.223 71.847 264.223 72.9116 264.223 74.0619C265.377 74.0619 266.441 74.0619 267.612 74.0619C267.612 75.3075 267.612 76.4654 267.61 77.6252C267.61 77.6271 267.632 77.5986 267.632 77.5986Z" fill="white"/>
</svg>
