<svg width="345" height="146" viewBox="0 0 345 146" fill="none" xmlns="http://www.w3.org/2000/svg">
<rect width="344.195" height="145.805" rx="16.7317" fill="#3A304E"/>
<path d="M33.0273 80.2689C36.4155 80.2689 39.0687 78.028 39.5168 74.6937H36.6306C36.3079 76.5401 34.8917 77.8309 33.0632 77.8309C30.8582 77.8309 29.3702 76.074 29.3702 73.5463C29.3702 71.0366 30.8582 69.2977 33.0632 69.2977C34.8917 69.2977 36.3259 70.5705 36.6306 72.417H39.5168C39.0687 69.1184 36.4155 66.8596 33.0273 66.8596C29.4061 66.8596 26.5737 69.7817 26.5737 73.5463C26.5737 77.3289 29.4061 80.2689 33.0273 80.2689ZM47.0306 75.9665C47.0306 77.2572 46.1701 77.9743 45.2737 77.9743C44.2698 77.9743 43.6065 77.3827 43.6065 76.0382V70.4271H41.1147V76.5222C41.1147 79.014 42.513 80.1793 44.4312 80.1793C45.6502 80.1793 46.7079 79.5877 47.2277 78.7451V80H49.5045V70.4271H47.0306V75.9665ZM54.2352 75.357C54.2352 73.2416 55.6514 72.7396 57.7668 72.901V70.3195C56.2251 70.3195 54.7371 71.0545 54.038 72.2735V70.4271H51.7433V80H54.2352V75.357ZM64.7619 80H66.7876V73.9766C66.7876 71.6282 65.3176 70.2478 62.8078 70.2478C60.4953 70.2478 58.8998 71.682 58.7564 73.887H60.9972C61.0869 72.8113 61.7322 72.1839 62.8078 72.1839C63.8476 72.1839 64.4571 72.8113 64.4571 73.887V74.4606C63.8655 74.3889 63.3994 74.353 62.8616 74.353C60.065 74.353 58.5592 75.357 58.5592 77.2213C58.5592 79.014 59.8858 80.1793 61.8756 80.1793C63.1843 80.1793 64.1344 79.7132 64.7619 78.8168V80ZM60.9076 77.1496C60.9076 76.2891 61.6067 75.841 63.023 75.841C63.4532 75.841 63.8655 75.8768 64.4571 75.9665V76.6477C64.4571 77.7591 63.6863 78.4583 62.4135 78.4583C61.4813 78.4583 60.9076 77.9563 60.9076 77.1496ZM74.7466 77.5799C74.388 77.7771 73.9578 77.8846 73.4917 77.8846C72.5953 77.8846 72.0934 77.4365 72.0934 76.325V72.5604H74.8362V70.4271H72.0934V67.5946H69.6195V70.4271H67.6834V72.5604H69.6195V76.8987C69.6195 79.0499 70.8564 80.1793 72.8284 80.1793C73.5634 80.1793 74.137 80.0538 74.7466 79.749V77.5799ZM80.3067 80.1613C82.6372 80.1613 84.3044 78.9244 84.8422 76.7552H82.3683C82.0814 77.7054 81.3464 78.2432 80.2529 78.2432C78.9801 78.2432 78.2272 77.3827 78.0658 75.823H84.8601C85.3083 72.7038 83.3005 70.2478 80.2708 70.2478C77.5101 70.2478 75.5202 72.3273 75.5202 75.1777C75.5202 78.1715 77.4384 80.1613 80.3067 80.1613ZM80.217 72.0763C81.4002 72.0763 82.1531 72.9189 82.2248 74.2455H78.1017C78.3168 72.8293 79.0518 72.0763 80.217 72.0763ZM85.7266 75.2135C85.7266 78.0101 87.3938 80.1793 89.9753 80.1793C91.2122 80.1793 92.252 79.6235 93.0049 78.6196V80H95.2816V67.1285H92.8077V71.664C92.0906 70.7498 91.1226 70.2478 89.9753 70.2478C87.3938 70.2478 85.7266 72.3811 85.7266 75.2135ZM88.2901 75.2135C88.2901 73.385 89.312 72.4528 90.531 72.4528C91.75 72.4528 92.7898 73.3671 92.7898 75.1777C92.7898 76.9883 91.7679 77.9563 90.531 77.9563C89.312 77.9563 88.2901 77.0062 88.2901 75.2135ZM107.168 80.2689C110.556 80.2689 113.209 78.028 113.658 74.6937H110.771C110.449 76.5401 109.032 77.8309 107.204 77.8309C104.999 77.8309 103.511 76.074 103.511 73.5463C103.511 71.0366 104.999 69.2977 107.204 69.2977C109.032 69.2977 110.467 70.5705 110.771 72.417H113.658C113.209 69.1184 110.556 66.8596 107.168 66.8596C103.547 66.8596 100.714 69.7817 100.714 73.5463C100.714 77.3289 103.547 80.2689 107.168 80.2689ZM119.576 80.1793C122.354 80.1793 124.434 77.9922 124.434 75.2135C124.434 72.417 122.354 70.2478 119.576 70.2478C116.797 70.2478 114.718 72.417 114.718 75.2135C114.718 77.9922 116.797 80.1793 119.576 80.1793ZM119.576 77.9743C118.339 77.9743 117.281 76.9883 117.281 75.2135C117.281 73.4388 118.339 72.4707 119.576 72.4707C120.813 72.4707 121.87 73.4388 121.87 75.2135C121.87 76.9883 120.813 77.9743 119.576 77.9743ZM128.516 74.7833C128.516 73.2416 129.359 72.4528 130.345 72.4528C131.474 72.4528 132.03 73.2416 132.03 74.6578V80H134.504V73.8152C134.504 71.5027 133.177 70.2478 131.259 70.2478C130.004 70.2478 129.018 70.8394 128.319 71.7895V70.4271H126.024V80H128.516V74.7833ZM142.532 77.5799C142.174 77.7771 141.744 77.8846 141.278 77.8846C140.381 77.8846 139.879 77.4365 139.879 76.325V72.5604H142.622V70.4271H139.879V67.5946H137.405V70.4271H135.469V72.5604H137.405V76.8987C137.405 79.0499 138.642 80.1793 140.614 80.1793C141.349 80.1793 141.923 80.0538 142.532 79.749V77.5799ZM148.092 80.1613C150.423 80.1613 152.09 78.9244 152.628 76.7552H150.154C149.867 77.7054 149.132 78.2432 148.039 78.2432C146.766 78.2432 146.013 77.3827 145.852 75.823H152.646C153.094 72.7038 151.086 70.2478 148.057 70.2478C145.296 70.2478 143.306 72.3273 143.306 75.1777C143.306 78.1715 145.224 80.1613 148.092 80.1613ZM148.003 72.0763C149.186 72.0763 149.939 72.9189 150.011 74.2455H145.887C146.103 72.8293 146.838 72.0763 148.003 72.0763ZM156.807 74.7833C156.807 73.2416 157.649 72.4528 158.635 72.4528C159.765 72.4528 160.32 73.2416 160.32 74.6578V80H162.794V73.8152C162.794 71.5027 161.468 70.2478 159.55 70.2478C158.295 70.2478 157.309 70.8394 156.61 71.7895V70.4271H154.315V80H156.807V74.7833ZM170.823 77.5799C170.465 77.7771 170.034 77.8846 169.568 77.8846C168.672 77.8846 168.17 77.4365 168.17 76.325V72.5604H170.913V70.4271H168.17V67.5946H165.696V70.4271H163.76V72.5604H165.696V76.8987C165.696 79.0499 166.933 80.1793 168.905 80.1793C169.64 80.1793 170.214 80.0538 170.823 79.749V77.5799Z" fill="white"/>
<path d="M266.842 113.293C266.215 112.866 265.676 112.383 265.82 111.52C265.94 110.792 266.583 110.248 267.303 110.237C268.031 110.227 268.692 110.765 268.82 111.472C268.953 112.216 268.588 112.866 267.863 113.167C267.775 113.205 267.689 113.25 267.604 113.29C267.351 113.293 267.095 113.293 266.842 113.293Z" fill="white"/>
<path d="M259.976 68.33C265.364 68.33 270.755 68.33 276.143 68.33C277.127 68.33 277.702 68.6979 277.924 69.4418C278.177 70.3003 277.59 71.2148 276.671 71.3641C276.423 71.4041 276.164 71.3881 275.911 71.3881C265.286 71.3881 254.659 71.3881 244.035 71.3881C243.883 71.3881 243.731 71.3935 243.576 71.3855C242.617 71.3455 241.947 70.6896 241.971 69.8124C241.993 68.9592 242.641 68.3407 243.582 68.3327C245.768 68.3193 247.954 68.3273 250.14 68.3273C253.417 68.33 256.696 68.33 259.976 68.33Z" fill="white"/>
<path d="M259.971 51.1971C265.308 51.1971 270.646 51.1971 275.986 51.1997C276.29 51.1997 276.604 51.1917 276.892 51.2691C277.58 51.4504 278.028 52.1329 277.975 52.8341C277.921 53.5327 277.391 54.1192 276.676 54.2339C276.428 54.2739 276.17 54.2552 275.917 54.2552C265.292 54.2552 254.665 54.2552 244.041 54.2552C243.889 54.2552 243.737 54.2605 243.582 54.2525C242.625 54.2152 241.95 53.5593 241.969 52.6848C241.988 51.8263 242.628 51.2104 243.574 51.2024C245.558 51.1864 247.539 51.1971 249.522 51.1944C253.004 51.1971 256.489 51.1971 259.971 51.1971Z" fill="white"/>
<path d="M264.78 76.8939C268.592 76.8939 272.405 76.8912 276.22 76.8965C277.137 76.8965 277.71 77.2778 277.924 78.0057C278.177 78.8642 277.59 79.7787 276.671 79.928C276.423 79.968 276.164 79.952 275.911 79.952C268.488 79.952 261.066 79.952 253.643 79.952C253.441 79.952 253.236 79.9627 253.033 79.944C252.174 79.864 251.561 79.1975 251.583 78.3763C251.604 77.5444 252.228 76.9125 253.116 76.9019C254.793 76.8806 256.472 76.8939 258.149 76.8939C260.357 76.8939 262.567 76.8939 264.78 76.8939Z" fill="white"/>
<path d="M250.295 59.7662C252.455 59.7662 254.617 59.7635 256.777 59.7662C257.867 59.7689 258.582 60.3821 258.576 61.2939C258.571 62.2004 257.849 62.819 256.761 62.8217C252.439 62.827 248.12 62.827 243.798 62.8217C242.692 62.8217 241.988 62.2324 241.969 61.3179C241.948 60.3554 242.644 59.7689 243.814 59.7662C245.974 59.7635 248.136 59.7662 250.295 59.7662Z" fill="white"/>
<path d="M258.372 94.0214C260.454 94.0214 262.539 94.0188 264.621 94.0214C265.754 94.0241 266.423 94.5813 266.437 95.5172C266.453 96.4903 265.77 97.0769 264.6 97.0769C260.358 97.0796 256.114 97.0822 251.872 97.0742C250.912 97.0716 250.285 96.565 250.187 95.7625C250.091 94.9679 250.536 94.2641 251.285 94.0748C251.528 94.0135 251.789 94.0214 252.042 94.0214C254.154 94.0188 256.263 94.0214 258.372 94.0214Z" fill="white"/>
<path d="M270.733 59.7663C272.562 59.7663 274.391 59.7609 276.22 59.7689C277.284 59.7716 277.955 60.3475 277.977 61.254C277.998 62.1765 277.292 62.8217 276.214 62.8244C272.533 62.8324 268.848 62.8324 265.166 62.8244C264.076 62.8217 263.393 62.1925 263.415 61.2513C263.436 60.3448 264.105 59.7743 265.169 59.7716C267.024 59.7636 268.88 59.7663 270.733 59.7663Z" fill="white"/>
<path d="M244.732 76.8965C245.164 76.8965 245.596 76.8778 246.027 76.8991C246.878 76.9418 247.467 77.5364 247.496 78.3495C247.526 79.1707 246.99 79.8666 246.158 79.9226C245.222 79.9866 244.276 79.9813 243.34 79.9253C242.527 79.8746 241.943 79.1521 241.97 78.3682C241.994 77.571 242.604 76.9498 243.436 76.9018C243.865 76.8778 244.3 76.8965 244.732 76.8965Z" fill="white"/>
<path d="M307.534 55.0258C306.476 52.1649 304.225 50.6425 301.245 50.4559C298.576 50.2879 296.352 51.4077 294.886 53.6793C293.273 56.1776 291.897 58.8251 290.402 61.3526C290.404 54.2312 290.407 47.0592 290.402 39.8871C290.396 37.1703 289.013 35.5012 286.376 35C268.774 35 251.173 35 233.571 35C231.398 35.2826 230.153 36.5331 229.756 38.6687C229.756 58.3452 229.756 78.019 229.756 97.6955C229.828 98.1647 230.078 98.5167 230.412 98.8499C235.005 103.438 239.591 108.032 244.169 112.634C244.502 112.967 244.854 113.221 245.321 113.293C250.509 113.293 255.697 113.293 260.888 113.293C261.314 113.021 261.741 112.757 261.909 112.229C262.237 111.186 261.477 110.24 260.267 110.237C256.172 110.229 252.079 110.216 247.984 110.251C247.325 110.256 247.208 110.064 247.216 109.451C247.251 106.649 247.147 103.841 247.253 101.044C247.376 97.7781 245.169 95.6318 241.988 95.7385C239.194 95.8318 236.394 95.7278 233.598 95.7785C232.889 95.7918 232.795 95.5652 232.795 94.936C232.811 76.6672 232.809 58.3958 232.809 40.1271C232.809 38.5434 233.28 38.0608 234.837 38.0608C251.597 38.0608 268.356 38.0608 285.115 38.0608C286.645 38.0608 287.138 38.5487 287.138 40.0578C287.138 48.9762 287.136 57.8946 287.144 66.813C287.144 67.2316 287.064 67.5942 286.848 67.9621C283.579 73.6144 280.318 79.2721 277.076 84.9378C276.839 85.351 276.583 85.471 276.125 85.471C265.468 85.4577 254.815 85.4603 244.158 85.4603C243.929 85.4603 243.7 85.4523 243.473 85.4657C242.598 85.519 241.975 86.1509 241.969 86.9774C241.964 87.7959 242.593 88.4491 243.457 88.5104C243.684 88.5264 243.916 88.5158 244.142 88.5158C254.137 88.5158 264.13 88.5158 274.125 88.5158C274.386 88.5158 274.645 88.5158 274.994 88.5158C274.304 89.7182 273.688 90.798 273.064 91.8698C272.856 92.2271 272.691 92.5897 272.659 93.0083C272.352 97.0716 272.048 101.135 271.731 105.198C271.672 105.942 271.822 106.577 272.504 106.968C273.2 107.366 273.81 107.107 274.413 106.694C277.676 104.446 280.948 102.204 284.224 99.9751C284.68 99.6658 285.024 99.2872 285.293 98.8099C285.859 97.8048 286.442 96.8076 287.016 95.8051C287.058 95.8158 287.098 95.8265 287.141 95.8371C287.141 96.0531 287.141 96.2691 287.141 96.485C287.141 100.383 287.141 104.281 287.141 108.182C287.141 109.76 286.669 110.235 285.096 110.235C281.51 110.235 277.924 110.232 274.338 110.237C273.493 110.24 272.941 110.648 272.731 111.37C272.533 112.05 272.8 112.655 273.491 113.117C273.568 113.167 273.637 113.231 273.712 113.29C277.935 113.29 282.155 113.29 286.378 113.29C286.954 113.122 287.57 113.143 288.109 112.797C289.684 111.781 290.396 110.315 290.399 108.483C290.41 102.777 290.407 97.0716 290.399 91.3659C290.399 90.7127 290.511 90.1155 290.844 89.5423C294.878 82.6128 298.856 75.6514 302.866 68.7086C304.241 66.3277 305.601 63.9388 306.987 61.5659C308.214 59.473 308.35 57.2334 307.534 55.0258ZM236.626 98.8179C238.533 98.8179 240.439 98.8073 242.343 98.8206C243.601 98.8313 244.163 99.3858 244.171 100.636C244.185 103.047 244.174 105.454 244.174 107.862C241.137 104.82 238.167 101.839 235.152 98.8153C235.637 98.8179 236.131 98.8179 236.626 98.8179ZM275.016 102.572C275.197 100.138 275.368 97.8634 275.543 95.4905C277.34 96.5277 279.047 97.5142 280.86 98.562C278.903 99.9031 277.044 101.178 275.016 102.572ZM300.653 66.0185C294.931 75.942 289.21 85.8656 283.499 95.7945C283.251 96.2264 283.097 96.3517 282.609 96.0584C280.718 94.9173 278.807 93.8162 276.877 92.7444C276.386 92.4724 276.33 92.2831 276.615 91.7925C282.185 82.1622 287.736 72.5213 293.292 62.883C294.084 61.5073 294.086 61.5046 295.427 62.2778C297.099 63.2403 298.768 64.2028 300.432 65.1759C300.605 65.2773 300.887 65.3093 300.879 65.6079C300.802 65.7518 300.727 65.8878 300.653 66.0185ZM304.292 59.6889C303.775 60.5928 303.242 61.4859 302.74 62.4004C302.564 62.723 302.434 62.819 302.074 62.6057C300.088 61.4326 298.085 60.2808 296.078 59.1397C295.715 58.9344 295.63 58.7691 295.864 58.3905C296.467 57.42 296.987 56.3962 297.611 55.4417C298.565 53.9806 300.376 53.3701 302.031 53.882C303.695 54.3965 304.828 55.9189 304.839 57.6546C304.844 58.3825 304.652 59.0597 304.292 59.6889Z" fill="white"/>
</svg>
