<svg width="345" height="146" viewBox="0 0 345 146" fill="none" xmlns="http://www.w3.org/2000/svg">
<rect width="345" height="146" rx="16.7317" fill="#3A304E"/>
<path d="M38.2043 63.0023C38.2043 61.1021 36.9852 60.0623 34.7265 59.6141L32.5215 59.166C31.5893 58.9867 30.7826 58.6102 30.7826 57.7318C30.7826 56.8355 31.5355 56.0826 32.8621 56.0826C34.2245 56.0826 35.1567 56.9968 35.2463 58.3413H38.0071C37.8278 55.6523 35.7124 53.9672 32.8262 53.9672C30.0476 53.9672 28.0218 55.6165 28.0218 57.9111C28.0218 60.0444 29.5277 61.1021 31.4817 61.4785L33.5971 61.8909C34.6906 62.106 35.318 62.59 35.318 63.3967C35.318 64.4365 34.3321 65.046 32.9517 65.046C31.2845 65.046 30.3702 64.1317 30.2985 62.7155H27.5378C27.735 65.4404 29.7607 67.1793 33.0055 67.1793C36.2323 67.1793 38.2043 65.4583 38.2043 63.0023ZM46.0202 64.5799C45.6617 64.7771 45.2314 64.8846 44.7653 64.8846C43.869 64.8846 43.3671 64.4365 43.3671 63.325V59.5604H46.1099V57.4271H43.3671V54.5946H40.8932V57.4271H38.9571V59.5604H40.8932V63.8987C40.8932 66.0499 42.1301 67.1793 44.1021 67.1793C44.8371 67.1793 45.4107 67.0538 46.0202 66.749V64.5799ZM50.1232 62.357C50.1232 60.2416 51.5395 59.7396 53.6548 59.901V57.3195C52.1131 57.3195 50.6252 58.0545 49.926 59.2735V57.4271H47.6314V67H50.1232V62.357ZM60.7754 62.9665C60.7754 64.2572 59.9149 64.9743 59.0186 64.9743C58.0147 64.9743 57.3514 64.3827 57.3514 63.0382V57.4271H54.8596V63.5222C54.8596 66.014 56.2578 67.1793 58.176 67.1793C59.395 67.1793 60.4527 66.5877 60.9726 65.7451V67H63.2493V57.4271H60.7754V62.9665ZM69.5217 67.1793C72.0853 67.1793 73.878 65.5479 74.1648 62.9127H71.5475C71.4041 64.2213 70.6691 64.9743 69.5217 64.9743C68.2131 64.9743 67.4064 63.9345 67.4064 62.2135C67.4064 60.5105 68.231 59.4528 69.5217 59.4528C70.6511 59.4528 71.422 60.2416 71.5475 61.5144H74.1648C73.86 58.9329 72.0136 57.2478 69.5217 57.2478C66.8327 57.2478 64.8608 59.3452 64.8608 62.2135C64.8608 65.1356 66.761 67.1793 69.5217 67.1793ZM81.7163 64.5799C81.3578 64.7771 80.9275 64.8846 80.4614 64.8846C79.5651 64.8846 79.0632 64.4365 79.0632 63.325V59.5604H81.806V57.4271H79.0632V54.5946H76.5893V57.4271H74.6532V59.5604H76.5893V63.8987C76.5893 66.0499 77.8262 67.1793 79.7982 67.1793C80.5332 67.1793 81.1068 67.0538 81.7163 66.749V64.5799ZM89.1537 62.9665C89.1537 64.2572 88.2932 64.9743 87.3969 64.9743C86.393 64.9743 85.7297 64.3827 85.7297 63.0382V57.4271H83.2379V63.5222C83.2379 66.014 84.6362 67.1793 86.5543 67.1793C87.7734 67.1793 88.831 66.5877 89.3509 65.7451V67H91.6276V57.4271H89.1537V62.9665ZM96.3583 62.357C96.3583 60.2416 97.7746 59.7396 99.8899 59.901V57.3195C98.3482 57.3195 96.8603 58.0545 96.1611 59.2735V57.4271H93.8665V67H96.3583V62.357ZM105.273 67.1613C107.604 67.1613 109.271 65.9244 109.809 63.7552H107.335C107.048 64.7054 106.313 65.2432 105.22 65.2432C103.947 65.2432 103.194 64.3827 103.032 62.823H109.827C110.275 59.7038 108.267 57.2478 105.237 57.2478C102.477 57.2478 100.487 59.3273 100.487 62.1777C100.487 65.1715 102.405 67.1613 105.273 67.1613ZM105.184 59.0763C106.367 59.0763 107.12 59.9189 107.191 61.2455H103.068C103.283 59.8293 104.018 59.0763 105.184 59.0763ZM110.693 62.2135C110.693 65.0101 112.36 67.1793 114.942 67.1793C116.179 67.1793 117.219 66.6235 117.972 65.6196V67H120.248V54.1285H117.774V58.664C117.057 57.7498 116.089 57.2478 114.942 57.2478C112.36 57.2478 110.693 59.3811 110.693 62.2135ZM113.257 62.2135C113.257 60.385 114.279 59.4528 115.498 59.4528C116.717 59.4528 117.756 60.3671 117.756 62.1777C117.756 63.9883 116.735 64.9563 115.498 64.9563C114.279 64.9563 113.257 64.0062 113.257 62.2135ZM31.0515 91V86.4466H32.7545L35.6587 91H38.9034L35.587 86.0343C37.4155 85.4248 38.4911 84.0444 38.4911 82.3055C38.4911 79.6344 36.6088 78.1285 33.364 78.1285H28.3266V91H31.0515ZM31.0515 80.3873H33.2385C34.8878 80.3873 35.7662 81.0327 35.7662 82.3055C35.7662 83.5604 34.8878 84.2057 33.2385 84.2057H31.0515V80.3873ZM44.14 91.1613C46.4705 91.1613 48.1377 89.9244 48.6755 87.7552H46.2016C45.9148 88.7054 45.1798 89.2432 44.0862 89.2432C42.8134 89.2432 42.0605 88.3827 41.8992 86.823H48.6934C49.1416 83.7038 47.1338 81.2478 44.1042 81.2478C41.3434 81.2478 39.3535 83.3273 39.3535 86.1777C39.3535 89.1715 41.2717 91.1613 44.14 91.1613ZM44.0504 83.0763C45.2335 83.0763 45.9865 83.9189 46.0582 85.2455H41.935C42.1501 83.8293 42.8851 83.0763 44.0504 83.0763ZM58.4474 87.9345C58.4474 86.5541 57.4973 85.6937 55.6329 85.3351L53.7865 84.9945C52.926 84.8332 52.5316 84.6001 52.5316 84.0265C52.5316 83.417 53.1411 83.0763 54.0554 83.0763C55.1131 83.0763 55.8122 83.65 55.9018 84.5822H58.2861C58.1068 82.5206 56.4576 81.2478 54.0554 81.2478C51.6711 81.2478 50.1473 82.4848 50.1473 84.2595C50.1473 85.7474 51.1871 86.6976 52.9081 87.0023L54.629 87.325C55.5433 87.5043 55.9377 87.7552 55.9377 88.3648C55.9377 89.046 55.2027 89.3507 54.2346 89.3507C52.9977 89.3507 52.1551 88.7233 52.1372 87.7373H49.7529C49.9501 89.8706 51.4739 91.1793 54.1988 91.1793C56.9237 91.1793 58.4474 89.9423 58.4474 87.9345ZM64.3794 91.1793C67.1581 91.1793 69.2376 88.9922 69.2376 86.2135C69.2376 83.417 67.1581 81.2478 64.3794 81.2478C61.6007 81.2478 59.5212 83.417 59.5212 86.2135C59.5212 88.9922 61.6007 91.1793 64.3794 91.1793ZM64.3794 88.9743C63.1424 88.9743 62.0848 87.9883 62.0848 86.2135C62.0848 84.4388 63.1424 83.4707 64.3794 83.4707C65.6164 83.4707 66.674 84.4388 66.674 86.2135C66.674 87.9883 65.6164 88.9743 64.3794 88.9743ZM76.654 86.9665C76.654 88.2572 75.7935 88.9743 74.8971 88.9743C73.8932 88.9743 73.2299 88.3827 73.2299 87.0382V81.4271H70.7381V87.5222C70.7381 90.014 72.1364 91.1793 74.0546 91.1793C75.2736 91.1793 76.3313 90.5877 76.8512 89.7451V91H79.1279V81.4271H76.654V86.9665ZM83.8586 86.357C83.8586 84.2416 85.2748 83.7396 87.3902 83.901V81.3195C85.8485 81.3195 84.3605 82.0545 83.6614 83.2735V81.4271H81.3668V91H83.8586V86.357ZM92.6481 91.1793C95.2116 91.1793 97.0043 89.5479 97.2911 86.9127H94.6738C94.5304 88.2213 93.7954 88.9743 92.6481 88.9743C91.3394 88.9743 90.5327 87.9345 90.5327 86.2135C90.5327 84.5105 91.3573 83.4528 92.6481 83.4528C93.7774 83.4528 94.5483 84.2416 94.6738 85.5144H97.2911C96.9863 82.9329 95.1399 81.2478 92.6481 81.2478C89.959 81.2478 87.9871 83.3452 87.9871 86.2135C87.9871 89.1356 89.8873 91.1793 92.6481 91.1793ZM103.015 91.1613C105.345 91.1613 107.013 89.9244 107.55 87.7552H105.077C104.79 88.7054 104.055 89.2432 102.961 89.2432C101.688 89.2432 100.935 88.3827 100.774 86.823H107.568C108.017 83.7038 106.009 81.2478 102.979 81.2478C100.218 81.2478 98.2285 83.3273 98.2285 86.1777C98.2285 89.1715 100.147 91.1613 103.015 91.1613ZM102.925 83.0763C104.108 83.0763 104.861 83.9189 104.933 85.2455H100.81C101.025 83.8293 101.76 83.0763 102.925 83.0763ZM117.322 87.9345C117.322 86.5541 116.372 85.6937 114.508 85.3351L112.661 84.9945C111.801 84.8332 111.407 84.6001 111.407 84.0265C111.407 83.417 112.016 83.0763 112.93 83.0763C113.988 83.0763 114.687 83.65 114.777 84.5822H117.161C116.982 82.5206 115.332 81.2478 112.93 81.2478C110.546 81.2478 109.022 82.4848 109.022 84.2595C109.022 85.7474 110.062 86.6976 111.783 87.0023L113.504 87.325C114.418 87.5043 114.813 87.7552 114.813 88.3648C114.813 89.046 114.078 89.3507 113.11 89.3507C111.873 89.3507 111.03 88.7233 111.012 87.7373H108.628C108.825 89.8706 110.349 91.1793 113.074 91.1793C115.799 91.1793 117.322 89.9423 117.322 87.9345Z" fill="white"/>
<path d="M308.091 102.183C307.959 101.83 307.951 101.525 308.228 101.232C309.298 100.095 309.444 98.6858 309.107 97.2852C308.847 96.2017 308.474 95.2013 309.124 94.1456C309.209 94.0072 309.186 93.7837 309.205 93.6006C309.4 91.7424 308.944 90.1375 307.222 89.1881C306.519 88.8008 306.354 88.3282 306.354 87.596C306.371 79.7672 306.371 71.9362 306.356 64.1074C306.354 63.2176 306.598 62.4662 307.123 61.7447C308.061 60.4526 308.595 59.0095 308.591 57.3726C308.576 51.3211 308.516 45.2675 308.618 39.2182C308.658 36.7575 305.973 34.2501 303.171 35.2761C302.595 35.4868 302.207 35.3889 301.745 35.0036C300.502 33.9713 299.089 33.5924 297.535 34.216C296.961 34.4459 296.537 34.2756 296.078 33.9393C294.597 32.8602 293.032 32.6601 291.405 33.6051C291.014 33.8329 290.685 33.7839 290.293 33.5945C287.826 32.4046 285.723 33.0368 284.259 35.4038C284.026 35.7827 283.747 35.9785 283.304 35.9785C279.21 35.9827 275.116 35.9785 271.022 35.9806C270.569 35.9806 270.311 35.8359 270.175 35.3506C269.923 34.4395 269.497 34.1011 268.589 34.0862C266.134 34.0479 263.677 34.0436 261.22 34.0883C260.197 34.1075 259.795 34.4353 259.5 35.4059C259.38 35.8061 259.176 35.9593 258.776 35.9806C257.931 36.0253 257.169 35.8891 256.474 35.3378C255.169 34.3033 253.663 33.7584 251.999 33.7541C246.032 33.7456 240.064 33.752 234.095 33.752C233.589 33.752 233.098 33.801 232.619 33.9862C230.417 34.8312 229.358 36.9959 230.04 39.2778C230.15 39.6481 230.366 39.9951 229.995 40.3761C228.65 41.7533 228.39 43.3625 229.061 45.1462C229.169 45.4335 229.224 45.723 228.983 45.9635C228.415 46.5297 228.169 47.2471 228 48.0027C228 48.5859 228 49.1713 228 49.7545C228.426 51.6042 228.426 51.6042 228 53.4178C228 54.0542 228 54.6928 228 55.3292C228.178 56.717 229.01 57.6217 230.184 58.2538C230.611 58.4837 230.785 58.803 230.779 59.2755C230.77 60.0461 230.775 60.8145 230.779 61.585C230.783 62.4343 230.747 63.2836 230.796 64.1329C230.842 64.963 231.395 65.5378 232.113 65.5569C232.846 65.5761 233.443 65.0503 233.581 64.2606C233.632 63.9711 233.623 63.6795 233.623 63.3858C233.625 62.1917 233.621 60.9975 233.625 59.8034C233.627 58.605 233.64 58.5923 234.803 58.5901C238.816 58.588 242.832 58.5901 246.846 58.5901C247.057 58.5901 247.267 58.5944 247.479 58.6008C247.962 58.6178 248.205 58.8583 248.205 59.3479C248.205 59.5331 248.212 59.7204 248.212 59.9056C248.212 65.1078 248.214 70.31 248.207 75.5122C248.207 75.9017 248.292 76.321 247.998 76.6552C247.191 77.5684 245.247 77.9877 244.179 77.3789C242.207 76.2529 240.271 76.2529 238.308 77.3619C237.493 77.8217 236.639 77.8004 235.779 77.5002C235.33 77.3427 234.905 77.1171 234.449 76.9851C233.803 76.7957 233.606 76.3785 233.613 75.7357C233.634 73.8774 233.621 72.0192 233.619 70.161C233.619 69.8162 233.632 69.4692 233.538 69.1329C233.348 68.4475 232.74 68.0005 232.066 68.0431C231.437 68.0835 230.914 68.5901 230.808 69.2755C230.755 69.6182 230.777 69.9652 230.775 70.31C230.775 74.5564 230.762 78.8029 230.783 83.0494C230.787 83.9945 230.542 84.8033 229.993 85.5717C229.031 86.9191 228.536 88.4197 228.544 90.1119C228.574 96.0847 228.631 102.057 228.521 108.028C228.474 110.572 231.217 113.051 234.002 112.006C234.542 111.804 234.919 111.887 235.358 112.26C236.516 113.243 237.853 113.675 239.335 113.145C240.068 112.883 240.612 113.007 241.231 113.454C242.648 114.475 244.181 114.526 245.706 113.692C246.178 113.432 246.53 113.532 246.956 113.754C249.139 114.89 251.941 113.956 252.833 111.976C253.062 111.468 253.432 111.304 253.966 111.306C257.927 111.317 261.889 111.312 265.85 111.31C266.344 111.31 266.678 111.47 266.932 111.934C268.798 115.342 272.833 114.454 273.928 111.951C274.138 111.472 274.493 111.304 274.998 111.308C276.186 111.321 277.376 111.336 278.562 111.304C279.365 111.283 280.053 111.489 280.699 111.981C282.067 113.026 283.63 113.539 285.35 113.541C291.187 113.545 297.024 113.509 302.861 113.556C306.284 113.584 308.112 110.34 307.006 107.741C306.869 107.415 306.869 107.151 307.14 106.876C308.485 105.525 308.741 103.941 308.091 102.183ZM286.471 53.1623C286.477 48.0666 286.473 42.9687 286.473 37.8729C286.473 36.3552 286.996 35.6251 288.08 35.6273C289.226 35.6294 289.582 36.1445 289.584 37.8069C289.586 40.3548 289.584 42.9027 289.586 45.4527C289.586 45.7166 289.578 45.987 289.618 46.2466C289.715 46.8895 290.111 47.2343 290.751 47.2428C291.393 47.2513 291.795 46.9129 291.914 46.2764C291.962 46.0189 291.958 45.7486 291.958 45.4846C291.96 42.7771 291.943 40.0696 291.965 37.3621C291.975 36.0721 292.981 35.3144 294.057 35.7465C294.781 36.0381 295.059 36.6171 295.057 37.3876C295.044 40.0951 295.053 42.8026 295.053 45.5102C295.053 45.723 295.038 45.938 295.065 46.1466C295.148 46.8277 295.643 47.2662 296.289 47.2471C296.94 47.2279 297.41 46.7767 297.423 46.07C297.446 44.6907 297.431 43.3092 297.433 41.9299C297.433 40.789 297.431 39.6481 297.433 38.5051C297.437 37.2854 298.049 36.5298 299.017 36.5468C299.962 36.5638 300.559 37.2961 300.561 38.471C300.568 40.8869 300.561 43.3029 300.563 45.7166C300.566 46.7426 300.966 47.2535 301.745 47.2492C302.514 47.2449 302.936 46.7085 302.938 45.7017C302.942 43.6307 302.933 41.5617 302.942 39.4906C302.946 38.3667 303.546 37.6643 304.477 37.6622C305.407 37.66 306.019 38.3603 306.021 39.4842C306.03 42.4834 306.026 45.4825 306.026 48.4838C306.026 51.27 306.011 54.0585 306.032 56.8447C306.043 58.2262 305.691 59.4565 304.795 60.5229C303.8 61.7064 303.732 63.1304 303.772 64.5842C303.8 65.6144 303.789 65.6144 302.794 65.6144C298.357 65.6144 293.919 65.6037 289.482 65.6272C288.883 65.6314 288.639 65.5122 288.692 64.8566C288.747 64.1733 288.752 63.4688 288.652 62.7919C288.322 60.5463 286.655 59.1074 284.344 59.001C282.665 58.9222 282.033 58.2964 281.928 56.6319C281.906 56.3019 281.964 56.1317 282.336 56.153C282.73 56.1764 283.128 56.1615 283.524 56.1572C285.35 56.1338 286.468 55.012 286.471 53.1623ZM270.027 46.1807C270.027 43.901 270.042 41.6213 270.016 39.3416C270.01 38.8222 270.094 38.6073 270.69 38.6115C274.936 38.6392 279.183 38.6392 283.431 38.6115C284.012 38.6073 284.111 38.7967 284.109 39.3288C284.088 43.8627 284.084 48.3944 284.111 52.9282C284.115 53.6115 283.88 53.7817 283.241 53.7775C279.073 53.7562 274.904 53.7519 270.736 53.7817C270.116 53.786 270.006 53.5923 270.014 53.0218C270.046 50.7422 270.027 48.4625 270.027 46.1807ZM262.754 36.7086C264.177 36.7512 265.604 36.7426 267.028 36.7107C267.5 36.7001 267.661 36.8108 267.659 37.3174C267.642 43.2582 267.644 49.199 267.657 55.1398C267.657 55.5612 267.536 55.6719 267.125 55.6655C265.621 55.6421 264.115 55.6357 262.612 55.6676C262.133 55.6783 262.063 55.4952 262.065 55.0759C262.08 52.1044 262.074 49.1351 262.074 46.1636C262.074 43.2454 262.089 40.3293 262.061 37.411C262.059 36.8682 262.188 36.6916 262.754 36.7086ZM247.818 56.0231C242.775 56.0146 237.73 56.021 232.687 56.0189C232.371 56.0189 232.052 56.0252 231.738 55.9869C230.891 55.8805 230.353 55.2057 230.385 54.3203C230.419 53.3794 230.853 52.9303 231.834 52.9239C234.606 52.9048 237.378 52.9154 240.151 52.9112C240.388 52.9112 240.629 52.9261 240.862 52.8941C241.549 52.7962 241.976 52.296 241.949 51.6511C241.921 51.0146 241.455 50.5442 240.754 50.5336C239.276 50.5123 237.798 50.525 236.317 50.5229C234.945 50.5229 233.57 50.5314 232.198 50.5208C231.101 50.5123 230.385 49.8843 230.383 48.9563C230.378 48.0219 231.09 47.3876 232.185 47.3833C234.932 47.3748 237.677 47.3833 240.424 47.379C241.417 47.3769 241.959 46.9469 241.951 46.1807C241.943 45.4123 241.405 44.9929 240.403 44.9908C237.973 44.9865 235.544 44.9929 233.115 44.9887C231.982 44.9865 231.312 44.4054 231.308 43.4455C231.304 42.4855 231.965 41.8916 233.1 41.8852C235.423 41.8725 237.747 41.881 240.072 41.881C240.31 41.881 240.549 41.8916 240.784 41.8661C241.53 41.7852 241.981 41.2978 241.949 40.623C241.919 39.9759 241.477 39.5353 240.75 39.5034C240.038 39.4715 239.325 39.4927 238.611 39.4927C237.158 39.4927 235.705 39.5055 234.254 39.4885C233.073 39.4757 232.397 38.8627 232.42 37.8772C232.443 36.9214 233.109 36.3744 234.263 36.3723C237.219 36.3701 240.178 36.3723 243.135 36.3723C246.013 36.3723 248.892 36.3765 251.77 36.3701C252.859 36.368 253.896 36.6064 254.727 37.3131C255.957 38.3582 257.351 38.7392 258.914 38.6136C259.486 38.5668 259.723 38.6754 259.719 39.3544C259.683 43.918 259.687 48.4838 259.716 53.0474C259.721 53.6583 259.558 53.8201 258.977 53.7711C258.215 53.7072 257.444 53.7583 256.7 53.9754C254.885 54.5076 253.759 56.0891 253.644 58.2517C253.56 59.8375 252.928 60.4654 251.344 60.5846C250.95 60.6144 250.76 60.5378 250.81 60.0908C250.849 59.7502 250.821 59.4011 250.817 59.0563C250.806 57.1683 249.692 56.0274 247.818 56.0231ZM266.629 108.528C266.212 108.958 265.331 108.656 264.653 108.66C261.036 108.673 257.418 108.647 253.801 108.684C253.155 108.69 253.019 108.492 253.034 107.888C253.077 106.349 253.053 104.81 253.047 103.271C253.043 102.351 252.583 101.817 251.838 101.834C251.126 101.851 250.679 102.375 250.675 103.247C250.666 105.476 250.677 107.707 250.669 109.935C250.664 110.833 250.253 111.395 249.493 111.598C248.36 111.9 247.591 111.323 247.578 110.084C247.551 107.43 247.566 104.778 247.564 102.123C247.564 101.885 247.57 101.644 247.561 101.406C247.528 100.514 247.1 100.033 246.361 100.044C245.628 100.054 245.198 100.54 245.191 101.444C245.179 104.099 245.187 106.751 245.187 109.405C245.187 109.644 245.196 109.884 245.177 110.12C245.1 111.051 244.433 111.696 243.592 111.666C242.749 111.636 242.104 110.961 242.099 110.031C242.084 107.404 242.093 104.776 242.093 102.149C242.093 101.857 242.106 101.564 242.089 101.274C242.042 100.525 241.574 100.046 240.907 100.042C240.195 100.035 239.725 100.521 239.721 101.332C239.708 103.879 239.727 106.427 239.71 108.975C239.702 110.382 238.444 111.193 237.355 110.514C236.754 110.14 236.58 109.554 236.582 108.875C236.59 106.381 236.59 103.886 236.582 101.391C236.58 100.567 236.205 100.116 235.536 100.052C234.741 99.9778 234.218 100.51 234.214 101.455C234.201 103.63 234.225 105.808 234.201 107.983C234.189 109.229 233.098 109.967 232.041 109.482C231.355 109.167 231.122 108.594 231.124 107.868C231.132 105.533 231.126 103.198 231.126 100.863C231.126 97.4406 231.152 94.0157 231.113 90.593C231.099 89.2116 231.404 87.9749 232.27 86.8893C233.117 85.8272 233.433 84.6054 233.39 83.2537C233.35 81.9851 233.382 80.7144 233.382 79.3819C233.998 79.6245 234.551 79.8587 235.114 80.0609C236.73 80.642 238.276 80.4781 239.744 79.5841C240.6 79.0626 241.525 78.9285 242.375 79.4457C244.365 80.6548 246.329 80.7505 248.443 79.4308C248.443 80.9591 248.432 82.3363 248.445 83.7135C248.468 86.3997 250.198 88.1813 252.884 88.3005C254.487 88.3708 255.222 89.1498 255.233 90.742C255.235 91.0762 255.112 91.1528 254.822 91.1443C254.347 91.1315 253.871 91.1315 253.396 91.1464C251.888 91.1954 250.736 92.298 250.688 93.8071C250.645 95.1055 250.662 96.4082 250.681 97.7088C250.694 98.5112 251.179 99.0008 251.884 98.9944C252.59 98.988 253.039 98.4985 253.049 97.6811C253.064 96.5402 253.075 95.3993 253.045 94.2584C253.03 93.6964 253.244 93.524 253.786 93.5261C257.906 93.541 262.025 93.541 266.144 93.524C266.617 93.5219 266.841 93.6262 266.769 94.1349C266.74 94.3435 266.75 94.5606 266.767 94.7714C266.852 95.925 266.653 96.8914 265.854 97.8833C264.279 99.8416 264.444 102.741 266.096 104.633C266.613 105.227 266.848 105.785 266.771 106.54C266.697 107.213 267.047 108.098 266.629 108.528ZM271.732 110.254C271.689 111.025 271.115 111.566 270.408 111.549C269.728 111.534 269.186 111.025 269.158 110.272C269.118 109.188 269.154 108.1 269.133 107.015C269.124 106.613 269.311 106.604 269.622 106.651C269.984 106.704 270.357 106.744 270.721 106.725C271.742 106.672 271.742 106.659 271.742 107.711C271.742 108.028 271.742 108.347 271.742 108.664C271.74 108.664 271.74 108.664 271.74 108.664C271.738 109.194 271.761 109.727 271.732 110.254ZM270.421 104.356C268.633 104.343 267.146 102.826 267.167 101.036C267.189 99.2562 268.631 97.8195 270.41 97.8046C272.234 97.7896 273.68 99.2307 273.682 101.063C273.684 102.881 272.21 104.367 270.421 104.356ZM269.15 91.9723C269.177 91.1188 269.724 90.5717 270.465 90.5909C271.198 90.61 271.715 91.1847 271.738 92.0298C271.751 92.5342 271.74 93.0387 271.74 93.5432C271.738 93.5432 271.736 93.5432 271.734 93.5432C271.734 94.1541 271.956 94.9161 271.674 95.3333C271.367 95.7867 270.565 95.2865 269.993 95.4461C269.203 95.6675 269.091 95.2758 269.129 94.6011C269.177 93.7241 269.12 92.845 269.15 91.9723ZM273.852 90.5973C273.295 89.0966 271.967 88.2026 270.45 88.192C268.919 88.1835 267.589 89.0988 266.996 90.6398C266.846 91.0336 266.663 91.1464 266.261 91.1443C263.594 91.1273 260.926 91.1273 258.259 91.1443C257.823 91.1464 257.596 91.0975 257.582 90.5675C257.565 90.0183 257.446 89.4585 257.285 88.9306C256.717 87.066 255.311 86.0038 253.363 85.9166C253.204 85.9102 253.045 85.9123 252.888 85.8995C251.528 85.7952 250.827 85.0651 250.823 83.6922C250.813 80.3483 250.819 77.0043 250.819 73.6582C250.819 70.3142 250.83 66.9703 250.808 63.6242C250.804 63.124 250.923 62.9771 251.444 62.9452C253.731 62.8047 255.311 61.6872 255.8 59.8907C255.944 59.3607 255.976 58.7945 256.021 58.2411C256.137 56.8575 256.828 56.1849 258.206 56.153C258.391 56.1487 258.579 56.1721 258.761 56.1487C259.388 56.0721 259.786 56.138 259.738 56.9767C259.702 57.5876 260.17 58.024 260.809 58.0303C263.503 58.0538 266.197 58.0559 268.891 58.0303C269.603 58.024 270.042 57.5663 270.006 56.8532C269.974 56.2062 270.241 56.1338 270.785 56.1402C273.479 56.1657 276.173 56.1636 278.867 56.1423C279.356 56.1381 279.558 56.236 279.57 56.7787C279.583 57.3811 279.721 57.9835 279.935 58.5603C280.589 60.3228 281.894 61.2892 283.76 61.37C285.753 61.4552 286.324 62.0512 286.327 64.0478C286.327 67.5514 286.327 71.055 286.327 74.5586C286.327 74.7182 286.324 74.8779 286.327 75.0354C286.339 75.9719 286.763 76.5062 287.5 76.5168C288.248 76.5275 288.699 75.9954 288.701 75.0694C288.707 73.0792 288.703 71.089 288.703 69.0967C288.703 67.9984 288.703 67.9984 289.762 67.9984C294.199 67.9984 298.636 68.009 303.073 67.9856C303.607 67.9835 303.781 68.0899 303.779 68.6667C303.757 75.1695 303.759 81.6722 303.776 88.175C303.779 88.7071 303.673 88.8965 303.094 88.8944C298.604 88.8689 294.114 88.8667 289.624 88.8944C288.891 88.8987 288.671 88.6645 288.684 87.9302C288.728 85.6228 288.701 83.3112 288.701 81.0038C288.701 79.9034 288.324 79.3776 287.534 79.3649C286.72 79.3521 286.324 79.9013 286.324 81.0443C286.322 81.868 286.295 82.6918 286.335 83.5113C286.363 84.0732 286.28 84.3819 285.6 84.3436C285.026 84.3095 284.452 84.4947 283.908 84.7012C282.137 85.378 281.267 86.6956 281.138 88.5773C280.994 90.6654 280.46 91.1337 278.361 91.1337C277.145 91.1337 275.932 91.1188 274.716 91.1422C274.282 91.1528 274.032 91.0826 273.852 90.5973ZM295.194 95.6377C295.224 96.3018 295.711 96.753 296.472 96.7552C299.244 96.7658 302.016 96.7616 304.791 96.7573C305.164 96.7573 305.532 96.7701 305.875 96.9318C306.506 97.2277 306.881 97.9876 306.735 98.6496C306.574 99.3839 305.954 99.8884 305.111 99.899C303.501 99.9182 301.889 99.9054 300.278 99.9054C299.036 99.9054 297.795 99.8969 296.554 99.9097C295.692 99.9182 295.182 100.384 295.19 101.11C295.201 101.834 295.713 102.289 296.584 102.292C299.119 102.302 301.654 102.3 304.189 102.296C304.969 102.294 305.528 102.643 305.763 103.377C305.975 104.037 305.788 104.631 305.231 105.082C304.829 105.41 304.353 105.41 303.878 105.41C301.502 105.412 299.125 105.412 296.747 105.41C296.319 105.41 295.893 105.416 295.561 105.74C295.207 106.085 295.089 106.512 295.25 106.976C295.419 107.472 295.787 107.768 296.319 107.777C297.348 107.796 298.378 107.794 299.409 107.796C300.597 107.798 301.786 107.783 302.974 107.8C304.079 107.817 304.751 108.452 304.723 109.412C304.698 110.337 304.035 110.914 302.953 110.916C299.968 110.923 296.984 110.919 294 110.919C291.175 110.919 288.349 110.906 285.524 110.925C284.346 110.933 283.27 110.653 282.349 109.914C281.157 108.958 279.822 108.564 278.299 108.65C277.116 108.716 275.923 108.641 274.735 108.673C274.269 108.686 274.034 108.592 274.112 108.073C274.148 107.839 274.127 107.596 274.116 107.358C274.066 106.217 274.203 105.246 275.023 104.248C276.603 102.321 276.41 99.3605 274.771 97.5002C274.271 96.934 274.051 96.3976 274.11 95.6717C274.165 94.9885 273.886 94.0689 274.231 93.6751C274.631 93.2196 275.565 93.5602 276.264 93.5283C277.423 93.4772 278.59 93.6177 279.744 93.4431C281.83 93.1281 283.247 91.6275 283.467 89.5096C283.493 89.2733 283.493 89.0328 283.508 88.7944C283.599 87.4214 284.689 86.536 286.036 86.6892C286.379 86.7297 286.32 86.9191 286.322 87.1171C286.329 87.5939 286.312 88.0728 286.329 88.5496C286.382 89.9417 287.324 91.0038 288.699 91.2103C289.035 91.2614 289.383 91.2677 289.724 91.2677C294.794 91.272 299.865 91.2656 304.935 91.2741C306.233 91.2763 306.966 92.1192 306.729 93.2856C306.572 94.0498 306.159 94.3627 305.225 94.3669C302.506 94.3754 299.784 94.3712 297.065 94.3712C296.853 94.3712 296.641 94.3605 296.431 94.3776C295.646 94.4372 295.163 94.9331 295.194 95.6377Z" fill="white"/>
<path d="M271.638 101.049C271.657 101.723 271.128 102.294 270.473 102.298C269.851 102.302 269.264 101.721 269.243 101.078C269.222 100.465 269.751 99.9162 270.387 99.895C271.064 99.8694 271.619 100.382 271.638 101.049Z" fill="white"/>
<path d="M261.301 76.4663H262.747L264.484 69.7241H263.085L261.986 74.3159L260.784 69.7241H259.329L258.089 74.2972L257 69.7241H255.61L257.338 76.4663H258.784L260.043 71.7524L261.301 76.4663ZM269.825 75.2268H266.716V73.6117H269.477V72.3816H266.716V70.9636H269.759V69.7241H265.289V76.4663H269.825V75.2268ZM275.971 74.485C275.971 73.7431 275.558 73.2079 274.807 72.945C275.408 72.6351 275.755 72.1374 275.755 71.5176C275.755 70.3626 274.882 69.7241 273.464 69.7241H270.929V76.4663H273.567C275.051 76.4663 275.971 75.7339 275.971 74.485ZM273.351 70.8509C274.046 70.8509 274.403 71.1514 274.403 71.6303C274.403 72.1186 274.046 72.4191 273.351 72.4191H272.225V70.8509H273.351ZM273.455 73.5553C274.225 73.5553 274.629 73.8934 274.629 74.4286C274.629 75.0014 274.225 75.3395 273.455 75.3395H272.225V73.5553H273.455ZM278.971 76.5508C280.427 76.5508 281.403 75.7526 281.403 74.5789C281.403 73.8934 280.953 73.3863 280.164 73.1328C280.774 72.8135 281.112 72.3534 281.112 71.7712C281.112 70.7476 280.295 70.0246 278.962 70.0246C277.713 70.0246 276.755 70.8509 276.746 71.9496H278.013C278.023 71.3956 278.361 71.0575 278.896 71.0575C279.441 71.0575 279.769 71.3674 279.769 71.8651C279.769 72.3816 279.384 72.7008 278.746 72.7008H278.135V73.7337H278.821C279.6 73.7337 280.06 74.0624 280.06 74.6164C280.06 75.1798 279.666 75.5179 278.99 75.5179C278.342 75.5179 277.929 75.1705 277.891 74.5976H276.624C276.633 75.7433 277.6 76.5508 278.971 76.5508Z" fill="white"/>
</svg>
