<svg width="26" height="26" viewBox="0 0 26 26" fill="none" xmlns="http://www.w3.org/2000/svg">
<path d="M12.2022 13.1292C12.2022 15.1948 12.2019 17.2604 12.2025 19.326C12.2025 19.5818 12.1785 19.8341 12.1156 20.0827C11.9493 20.7408 11.5434 21.1489 10.8612 21.2254C9.91409 21.3315 9.10332 21.0555 8.49728 20.2903C8.27758 20.0127 8.15031 19.6909 8.13176 19.3339C8.12623 19.2284 8.08359 19.1754 7.98823 19.1282C7.20805 18.7422 6.64757 18.1642 6.4282 17.2992C6.34162 16.9574 6.33576 16.6105 6.41746 16.2691C6.4461 16.15 6.41225 16.0976 6.32274 16.0335C5.62459 15.5317 5.12563 14.884 4.95085 14.0304C4.72203 12.9125 5.08071 11.9703 5.8713 11.1752C6.04739 10.9978 6.24495 10.8446 6.45652 10.7115C6.51933 10.6721 6.5444 10.6311 6.53496 10.5539C6.44252 9.78523 6.71104 9.13987 7.22042 8.5801C7.44532 8.33308 7.71189 8.13879 8.00385 7.97899C8.06862 7.94352 8.11809 7.91358 8.11972 7.82473C8.13599 6.86076 8.90478 6.11841 9.79171 5.88604C10.583 5.67873 11.3241 5.79199 12.0193 6.23037C12.1925 6.33939 12.265 6.47933 12.2618 6.67265C12.2536 7.13869 12.2387 7.60473 12.2377 8.07077C12.2348 9.75691 12.2364 11.4431 12.2364 13.1292C12.225 13.1292 12.2136 13.1292 12.2022 13.1292ZM11.5093 13.2259C11.5125 13.2259 11.5158 13.2259 11.5187 13.2259C11.5187 13.1552 11.5184 13.0849 11.5187 13.0143C11.5275 10.9871 11.5115 8.95957 11.5535 6.93236C11.5552 6.84741 11.5646 6.77158 11.4614 6.71528C10.8108 6.36054 9.89098 6.43052 9.31391 6.89916C8.95425 7.19141 8.76775 7.56242 8.84391 8.0405C8.87841 8.25628 8.80518 8.37832 8.60859 8.46912C8.5448 8.49873 8.48035 8.52705 8.41688 8.55764C7.69529 8.90684 6.99649 9.73446 7.28161 10.7466C7.3288 10.9142 7.25557 11.0519 7.10129 11.1449C6.94832 11.237 6.79209 11.3262 6.65083 11.4346C6.04771 11.8967 5.64412 12.4848 5.59757 13.261C5.53899 14.2367 6.01126 14.9462 6.77711 15.4955C6.86109 15.5557 6.934 15.5662 7.03164 15.532C7.16411 15.4858 7.30342 15.4649 7.445 15.4526C7.96577 15.4077 8.40842 15.6163 8.83415 15.876C8.98517 15.9681 9.02748 16.1669 8.94807 16.3218C8.86507 16.4836 8.67727 16.5594 8.50574 16.4855C8.36676 16.4257 8.23689 16.3456 8.10084 16.2786C7.83297 16.1461 7.55469 16.1175 7.26403 16.1949C7.18006 16.2174 7.13937 16.259 7.11854 16.3446C6.96882 16.9613 7.14588 17.4899 7.55404 17.952C7.82907 18.2635 8.17798 18.4669 8.56498 18.611C8.77426 18.6888 8.87125 18.8249 8.83968 19.0149C8.77914 19.3801 8.88785 19.6961 9.12968 19.9587C9.60814 20.4785 10.2155 20.6226 10.8931 20.5055C11.1571 20.4599 11.3172 20.2819 11.398 20.0293C11.451 19.863 11.4839 19.6935 11.4865 19.5194C11.4949 18.9505 11.5063 18.3813 11.5073 17.8124C11.5112 16.2831 11.5093 14.7545 11.5093 13.2259Z" fill="#FBAC30"/>
<path d="M14.3321 21.34C13.7788 21.34 13.2258 21.3354 12.6725 21.3432C12.5394 21.3452 12.5023 21.3016 12.5114 21.1773C12.5205 21.0533 12.5212 20.9273 12.5114 20.8033C12.5013 20.6735 12.5355 20.6139 12.679 20.6286C12.8079 20.6416 12.9397 20.6227 13.069 20.6338C13.1962 20.6445 13.22 20.5934 13.2196 20.4763C13.2151 19.5491 13.2359 18.6212 13.2092 17.6947C13.1956 17.2267 13.2991 16.8218 13.5354 16.4189C13.9432 15.7228 14.3149 15.0052 14.6911 14.2911C14.7663 14.1483 14.8334 14.1258 14.9571 14.2179C15.0088 14.2563 15.07 14.282 15.127 14.3133C15.4033 14.4646 15.4036 14.4649 15.2503 14.7481C14.8301 15.5246 14.4103 16.3014 13.9878 17.077C13.9448 17.1557 13.924 17.2335 13.9243 17.3233C13.9263 18.37 13.9282 19.4166 13.9224 20.4632C13.9217 20.5986 13.9562 20.6357 14.0919 20.6334C14.5798 20.625 15.0681 20.6273 15.5563 20.6325C15.6637 20.6338 15.6943 20.6009 15.6923 20.4951C15.6861 20.0994 15.6826 19.7033 15.69 19.3076C15.7014 18.6931 15.9423 18.1945 16.4647 17.8502C17.8232 16.9552 18.6093 15.6785 18.9016 14.1014C19.3953 11.437 18.208 8.95476 15.8339 7.64744C14.9678 7.17033 14.0301 6.94805 13.041 6.95359C12.9082 6.95424 12.8567 6.92039 12.8659 6.78403C12.8743 6.66003 12.8698 6.53408 12.858 6.41041C12.8466 6.28837 12.8776 6.24216 13.0136 6.24183C13.9653 6.24021 14.8829 6.4153 15.7428 6.82015C17.9251 7.84824 19.2755 9.55098 19.6329 11.9388C19.9714 14.1997 19.3208 16.1846 17.669 17.8056C17.4323 18.0377 17.1677 18.2375 16.8872 18.4142C16.55 18.6267 16.3944 18.9327 16.3963 19.3274C16.3989 19.8481 16.398 20.3685 16.398 20.8892C16.398 21.2114 16.2694 21.3384 15.9423 21.3387C15.4052 21.3393 14.8685 21.339 14.3315 21.339C14.3321 21.339 14.3321 21.3393 14.3321 21.34Z" fill="#FBAC30"/>
<path d="M13.0169 22.0536C14.0851 22.0536 15.1536 22.0559 16.2219 22.051C16.3524 22.0504 16.3986 22.0787 16.3973 22.2193C16.3905 22.9131 16.3927 23.6073 16.398 24.3015C16.3986 24.4069 16.3618 24.4688 16.2785 24.528C15.6236 24.9915 14.9714 25.4581 14.3198 25.9261C14.2504 25.9759 14.1814 25.999 14.0952 25.9987C13.3414 25.9964 12.5876 25.9964 11.8337 25.9997C11.7472 26 11.6788 25.9766 11.6105 25.9252C10.9862 25.4565 10.3616 24.9885 9.73342 24.5251C9.65368 24.4662 9.62862 24.4043 9.62927 24.3087C9.63252 23.6145 9.63415 22.9206 9.62699 22.2265C9.62569 22.093 9.65791 22.0543 9.79559 22.0549C10.8693 22.0608 11.9431 22.0582 13.0169 22.0582C13.0169 22.0566 13.0169 22.0553 13.0169 22.0536ZM13.0094 23.9839C13.0094 23.9829 13.0094 23.9822 13.0094 23.9813C13.8547 23.9813 14.6996 23.979 15.5449 23.9839C15.6588 23.9845 15.6923 23.9536 15.6897 23.8394C15.6819 23.5253 15.6822 23.2109 15.6884 22.8969C15.6907 22.7869 15.663 22.7481 15.5458 22.7485C13.8556 22.7534 12.1654 22.7547 10.4749 22.753C10.3642 22.753 10.3219 22.7823 10.3248 22.8988C10.3323 23.2074 10.3349 23.5165 10.3264 23.8251C10.3229 23.9546 10.3632 23.9874 10.4905 23.9868C11.3299 23.9813 12.1696 23.9839 13.0094 23.9839ZM11.1489 24.6992C11.4018 24.8883 11.6202 25.0487 11.8344 25.2141C11.907 25.27 11.9815 25.2928 12.0733 25.2922C12.6751 25.2883 13.2769 25.2896 13.8787 25.2879C13.9217 25.2879 13.9751 25.2957 14.006 25.2746C14.2703 25.0933 14.5303 24.9059 14.822 24.6992C13.5812 24.6992 12.3858 24.6992 11.1489 24.6992Z" fill="#FBAC30"/>
<path d="M1.76671 12.6571C2.21067 12.6571 2.65495 12.6564 3.0989 12.6574C3.35375 12.6577 3.51422 12.796 3.51324 13.0112C3.51226 13.2263 3.35213 13.3636 3.09532 13.3639C2.20156 13.3649 1.30811 13.3652 0.414344 13.3639C0.159819 13.3636 -0.00129409 13.2224 7.83163e-06 13.0076C0.00130975 12.7934 0.162422 12.6577 0.417924 12.6574C0.867412 12.6567 1.3169 12.6571 1.76671 12.6571Z" fill="#FBAC30"/>
<path d="M24.2593 12.657C24.7036 12.657 25.1476 12.6564 25.5918 12.6574C25.836 12.658 25.9951 12.7931 25.9997 13.001C26.0046 13.2171 25.8444 13.3632 25.5918 13.3636C24.6929 13.3652 23.7936 13.3652 22.8946 13.3636C22.6423 13.3632 22.4816 13.2168 22.4864 13.0007C22.4913 12.7918 22.6492 12.6574 22.8946 12.657C23.3496 12.6564 23.8043 12.657 24.2593 12.657Z" fill="#FBAC30"/>
<path d="M21.7689 3.86993C21.9254 3.8709 22.0273 3.93534 22.0911 4.05348C22.1552 4.17194 22.149 4.29399 22.0781 4.40822C22.053 4.4489 22.0169 4.48372 21.9824 4.51789C21.351 5.15024 20.7195 5.78226 20.0871 6.41362C19.9026 6.59783 19.7008 6.61052 19.5455 6.45138C19.3974 6.29972 19.4101 6.09566 19.5849 5.92025C20.2232 5.27977 20.8634 4.64091 21.5023 4.00108C21.5821 3.92167 21.6696 3.86309 21.7689 3.86993Z" fill="#FBAC30"/>
<path d="M3.868 4.23603C3.87158 3.95028 4.14954 3.78496 4.37998 3.9096C4.42197 3.93239 4.46005 3.96526 4.49422 3.99943C5.13802 4.64219 5.78019 5.28625 6.42432 5.92868C6.53303 6.03705 6.58283 6.16203 6.53726 6.31108C6.49788 6.43931 6.40837 6.52002 6.27525 6.55094C6.14668 6.58088 6.0383 6.53824 5.94944 6.45005C5.29002 5.79264 4.63223 5.13329 3.9741 4.47458C3.90152 4.40201 3.86084 4.31609 3.868 4.23603Z" fill="#FBAC30"/>
<path d="M12.6537 1.75811C12.6537 1.28719 12.6514 0.816266 12.655 0.345669C12.6563 0.181318 12.7627 0.0521154 12.9125 0.011109C13.0531 -0.0272938 13.2096 0.0351921 13.2942 0.161791C13.3385 0.227857 13.3486 0.301083 13.3486 0.378214C13.3483 1.29825 13.3496 2.21829 13.3476 3.13833C13.3473 3.36875 13.2005 3.51911 12.9925 3.51455C12.792 3.51032 12.655 3.36192 12.6537 3.13801C12.6511 2.67815 12.653 2.21797 12.653 1.75779C12.6534 1.75811 12.6537 1.75811 12.6537 1.75811Z" fill="#FBAC30"/>
<path d="M10.5987 18.8422C10.5375 18.8444 10.4535 18.7924 10.3771 18.7169C10.0831 18.4279 9.92789 18.4155 9.59916 18.6492C9.42731 18.7715 9.22714 18.7536 9.10443 18.6049C8.97359 18.4458 8.99539 18.2459 9.16009 18.0995C9.68216 17.6351 10.4714 17.7041 10.9073 18.2525C11.003 18.3729 11.0345 18.5047 10.9626 18.6456C10.8985 18.7706 10.7927 18.8389 10.5987 18.8422Z" fill="#FBAC30"/>
<path d="M8.19698 13.5286C8.19698 13.5826 8.20154 13.6373 8.19633 13.691C8.17518 13.9058 8.0222 14.0399 7.81617 14.0278C7.62512 14.0168 7.48711 13.8612 7.49167 13.6526C7.4946 13.5221 7.50436 13.3926 7.43927 13.2721C7.35139 13.1101 7.20785 13.0212 7.03925 12.9613C6.79547 12.8748 6.69489 12.6951 6.77106 12.4898C6.84266 12.2958 7.03632 12.2216 7.27099 12.2978C7.84221 12.4836 8.20349 12.961 8.19698 13.5286Z" fill="#FBAC30"/>
<path d="M10.5065 15.7833C10.3685 15.7846 10.264 15.7185 10.2018 15.6023C10.029 15.2811 9.77838 15.0504 9.44997 14.8912C9.2524 14.7955 9.19805 14.5905 9.29471 14.4112C9.38715 14.24 9.57918 14.1827 9.76861 14.269C10.2279 14.4785 10.5732 14.8095 10.8095 15.2534C10.9442 15.5073 10.7828 15.7855 10.5065 15.7833Z" fill="#FBAC30"/>
<path d="M9.78327 12.2291C9.48969 12.2119 9.21205 12.1318 8.96534 11.9622C8.78958 11.8415 8.74499 11.6485 8.84654 11.4809C8.94874 11.3123 9.15802 11.2619 9.34289 11.3719C9.61369 11.533 9.87603 11.5883 10.1585 11.3881C10.3031 11.2856 10.5032 11.34 10.6074 11.477C10.7164 11.6205 10.7021 11.821 10.5625 11.9463C10.3431 12.1429 10.0769 12.22 9.78327 12.2291Z" fill="#FBAC30"/>
<path d="M10.6415 8.82096C10.637 9.2704 10.2877 9.66387 9.83955 9.7231C9.65566 9.74751 9.47925 9.63588 9.43791 9.46893C9.39007 9.27464 9.48608 9.08848 9.68495 9.04096C9.86136 8.99898 9.93687 8.91372 9.94078 8.72821C9.94534 8.50788 10.1035 8.37705 10.3115 8.38714C10.5283 8.39756 10.6441 8.55019 10.6415 8.82096Z" fill="#FBAC30"/>
</svg>
