<svg width="20" height="20" viewBox="0 0 20 20" fill="none" xmlns="http://www.w3.org/2000/svg">
<path d="M9.60962 14.1944C8.6649 13.4792 7.76375 12.7967 6.81994 12.0815C6.46873 13.2378 6.13295 14.3433 5.79627 15.4488C5.76995 15.535 5.74454 15.6221 5.71459 15.7075C5.61023 16.0088 5.35794 16.1368 5.11382 15.9952C4.96045 15.9062 4.81162 15.5913 4.85155 15.4234C5.04576 14.6174 5.35068 13.8377 5.53127 13.0299C5.8489 11.6077 6.53316 10.416 7.49422 9.32589C8.55328 8.12509 9.51161 6.83534 10.5135 5.58462C11.3856 4.49728 12.8068 4.28126 13.953 5.06727C14.3014 5.30689 14.6499 5.54832 14.9839 5.8079C15.9577 6.56668 16.1954 7.92087 15.4186 8.87389C13.8631 10.7845 12.314 12.7095 10.6297 14.503C9.43266 15.7773 7.9634 16.7621 6.36346 17.5318C3.26522 19.0221 0.524542 16.7349 0.111625 14.5012C0.0435619 14.1318 0.00635396 13.7515 0.00544645 13.3757C-0.00272114 10.3815 0.00181641 7.38537 1.39061e-06 4.38927C-0.00181363 1.92323 1.77328 0.0308143 4.23989 0.0126616C8.15761 -0.0163826 12.0762 0.00721582 15.994 0.056228C18.1874 0.083457 19.9879 1.98949 19.9961 4.29488C20.0106 8.16775 19.9888 12.0415 19.9353 15.9144C19.9062 18.0619 18.0213 19.9171 15.8596 19.9479C12.7287 19.9933 9.59692 19.986 6.4651 19.9997C6.13114 20.0015 5.78538 19.9715 5.78447 19.5295C5.78356 19.0884 6.12841 19.0557 6.46238 19.0548C9.44264 19.0457 12.4229 19.0367 15.4032 19.0294C17.5821 19.0239 19.0105 17.6035 19.0178 15.4306C19.0296 11.7992 19.0423 8.16775 19.0523 4.53721C19.0577 2.36797 17.6565 0.970215 15.4821 0.966584C11.7904 0.961138 8.09953 0.950247 4.40778 0.951154C2.7071 0.952062 1.42751 1.91869 1.03638 3.48345C0.974667 3.72942 0.951072 3.99082 0.951072 4.24586C0.945626 7.31729 0.939274 10.3887 0.951979 13.4602C0.959239 15.3017 2.1989 16.7658 3.96854 17.0535C4.76806 17.1833 5.49043 16.8992 6.18922 16.5688C7.44521 15.9779 8.51698 15.1202 9.60962 14.1944ZM10.4264 7.20475C9.34191 8.55531 8.2892 9.86774 7.21924 11.2001C7.63579 11.5133 8.01604 11.7983 8.41443 12.0969C9.52069 10.7636 10.5952 9.46838 11.6878 8.15232C11.2586 7.83011 10.862 7.5315 10.4264 7.20475ZM12.4429 8.71959C11.3457 10.042 10.2685 11.339 9.16131 12.6723C9.55789 12.9718 9.92271 13.2487 10.3284 13.5555C11.4473 12.2303 12.5354 10.9415 13.6417 9.63176C13.4792 9.50106 13.3549 9.39487 13.2242 9.29684C12.9747 9.10805 12.7206 8.92381 12.4429 8.71959ZM14.2288 8.87116C14.3405 8.73865 14.4385 8.62792 14.5301 8.51265C15.1509 7.72482 15.051 7.0087 14.2361 6.41874C13.9793 6.23267 13.7197 6.05024 13.4575 5.87234C12.5654 5.26695 11.578 5.5229 11.0616 6.50859C12.1089 7.28916 13.1589 8.07244 14.2288 8.87116Z" fill="#FBAC30"/>
</svg>
